<svg width="1149" height="1149" viewBox="0 0 1149 1149" fill="none" xmlns="http://www.w3.org/2000/svg">
<path d="M237.684 864.37V764.099H244.878V778.633H245.172C250.31 768.944 258.972 762.484 271.744 762.484C289.361 762.484 302.427 776.725 302.427 801.976C302.427 824.584 290.682 841.614 271.157 841.614C258.531 841.614 250.604 836.182 245.172 827.521H244.878V864.37H237.684ZM270.863 835.595C287.159 835.595 295.087 820.18 295.087 802.123C295.087 781.863 286.278 768.65 270.716 768.65C253.833 768.65 244.144 783.184 244.144 802.416C244.144 822.529 253.687 835.595 270.863 835.595ZM343.772 841.908C322.485 841.908 309.712 825.025 309.712 802.123C309.712 779.221 322.485 762.484 343.772 762.484C365.206 762.484 377.832 779.221 377.832 802.123C377.832 825.025 365.206 841.908 343.772 841.908ZM343.772 835.742C361.242 835.742 370.491 820.621 370.491 802.123C370.491 783.625 361.242 768.504 343.772 768.504C326.302 768.504 317.053 783.625 317.053 802.123C317.053 820.621 326.302 835.742 343.772 835.742ZM389.234 839.999V735.031H396.428V839.999H389.234ZM412.03 839.999V764.099H419.224V839.999H412.03ZM412.03 746.776V735.031H419.224V746.776H412.03ZM432.33 839.999V818.712H453.764V839.999H432.33ZM465.475 839.999V764.687H484.707V774.816H485.147C489.258 767.916 496.599 762.631 507.022 762.631C516.564 762.631 524.199 767.916 527.869 775.844H528.162C533.301 767.623 541.228 762.631 550.771 762.631C566.626 762.631 575.582 772.908 575.582 789.35V839.999H555.616V792.727C555.616 784.212 551.358 779.808 544.018 779.808C535.65 779.808 530.511 786.267 530.511 796.25V839.999H510.545V792.727C510.545 784.212 506.288 779.808 498.947 779.808C490.873 779.808 485.441 786.267 485.441 796.25V839.999H465.475ZM623.586 842.202C600.243 842.202 584.241 824.878 584.241 802.416C584.241 779.955 600.243 762.631 623.586 762.631C646.928 762.631 662.93 779.955 662.93 802.416C662.93 824.878 646.928 842.202 623.586 842.202ZM623.586 826.933C635.771 826.933 642.671 817.097 642.671 802.416C642.671 787.736 635.771 777.753 623.586 777.753C611.254 777.753 604.5 787.736 604.5 802.416C604.5 817.097 611.254 826.933 623.586 826.933ZM690.027 839.999L663.895 764.687H684.154L696.193 803.738C698.395 810.931 699.569 815.776 699.569 815.776H699.863C699.863 815.776 700.891 810.931 703.093 803.738L715.425 764.687H735.391L709.112 839.999H690.027ZM742.175 839.999V764.687H762.141V839.999H742.175ZM742.175 752.942V735.031H762.141V752.942H742.175ZM810.387 842.202C785.429 842.202 771.336 824.731 771.336 802.27C771.336 779.955 786.457 762.631 808.478 762.631C832.702 762.631 845.621 781.129 845.621 807.995H791.008C792.476 819.593 798.936 826.787 810.24 826.787C818.021 826.787 822.572 823.263 824.774 817.538H844.446C841.657 830.897 829.766 842.202 810.387 842.202ZM808.772 778.046C798.202 778.046 793.063 784.359 791.302 794.195H824.774C824.187 784.653 817.874 778.046 808.772 778.046ZM885.398 842.202C863.523 842.202 851.338 831.631 850.164 815.629H868.662C869.983 824.291 876.149 828.108 885.104 828.108C893.913 828.108 898.904 824.731 898.904 819.446C898.904 812.253 889.362 811.519 879.085 809.463C865.579 806.821 852.366 803.15 852.366 786.708C852.366 770.412 865.872 762.631 883.049 762.631C902.868 762.631 913.879 772.467 915.347 787.589H897.289C896.409 779.514 891.27 776.578 882.755 776.578C874.975 776.578 869.836 779.514 869.836 784.946C869.836 791.406 879.819 791.993 890.536 794.195C903.162 796.838 917.109 800.361 917.109 817.978C917.109 833.099 904.189 842.202 885.398 842.202Z" fill="black"/>
<path fill-rule="evenodd" clip-rule="evenodd" d="M759.025 301.876C758.842 309.217 756.008 316.647 749.927 322.728L443.727 628.933C437.439 635.221 429.701 638.039 422.109 638.039C406.229 638.039 391 625.709 391 607.089V300.892L391.001 300.599V300.575L391.002 300.558C391.083 292.88 393.965 285.875 398.674 280.516L398.679 280.51C399.119 280.009 399.575 279.523 400.047 279.052C405.24 273.859 412.275 270.508 420.085 270.059L420.126 270.057C420.708 270.024 421.294 270.007 421.885 270.007H728.083V270H728.142L728.244 270C728.74 270.003 729.234 270.016 729.721 270.04L729.747 270.041C738.913 270.495 746.444 274.687 751.574 280.764L751.578 280.769C751.68 280.89 751.782 281.013 751.882 281.135C751.995 281.274 752.107 281.413 752.217 281.553C756.324 286.754 758.737 293.214 759.009 299.855C759.036 300.527 759.042 301.201 759.025 301.876ZM424.182 302.427C422.1 302.427 420.412 304.115 420.412 306.198V327.313C420.412 329.395 422.1 331.083 424.182 331.083H440.773C442.855 331.083 444.543 329.395 444.543 327.313V306.198C444.543 304.115 442.855 302.427 440.773 302.427H424.182ZM424.182 346.166C422.1 346.166 420.412 347.854 420.412 349.936V371.052C420.412 373.134 422.1 374.822 424.182 374.822H440.773C442.855 374.822 444.543 373.134 444.543 371.052V349.936C444.543 347.854 442.855 346.166 440.773 346.166H424.182ZM420.412 393.675C420.412 391.593 422.1 389.904 424.182 389.904H440.773C442.855 389.904 444.543 391.593 444.543 393.675V414.79C444.543 416.873 442.855 418.561 440.773 418.561H424.182C422.1 418.561 420.412 416.873 420.412 414.79V393.675ZM424.182 433.643C422.1 433.643 420.412 435.331 420.412 437.414V458.529C420.412 460.612 422.1 462.3 424.182 462.3H440.773C442.855 462.3 444.543 460.612 444.543 458.529V437.414C444.543 435.331 442.855 433.643 440.773 433.643H424.182ZM420.412 481.153C420.412 479.07 422.1 477.382 424.182 477.382H440.773C442.855 477.382 444.543 479.07 444.543 481.153V502.268C444.543 504.35 442.855 506.038 440.773 506.038H424.182C422.1 506.038 420.412 504.35 420.412 502.268V481.153ZM424.182 521.121C422.1 521.121 420.412 522.809 420.412 524.891V546.007C420.412 548.089 422.1 549.777 424.182 549.777H440.773C442.855 549.777 444.543 548.089 444.543 546.007V524.891C444.543 522.809 442.855 521.121 440.773 521.121H424.182ZM420.412 568.63C420.412 566.548 422.1 564.859 424.182 564.859H440.773C442.855 564.859 444.543 566.548 444.543 568.63V589.745C444.543 591.828 442.855 593.516 440.773 593.516H424.182C422.1 593.516 420.412 591.828 420.412 589.745V568.63Z" fill="black"/>
<path fill-rule="evenodd" clip-rule="evenodd" d="M592.98 515.612L759.026 349.563V607.089C759.026 625.709 743.797 638.039 727.917 638.039C720.332 638.039 712.594 635.221 706.299 628.933L592.98 515.612ZM716.779 433.643C714.697 433.643 713.009 435.331 713.009 437.414V458.529C713.009 460.612 714.697 462.3 716.779 462.3H733.37C735.452 462.3 737.14 460.612 737.14 458.529V437.414C737.14 435.331 735.452 433.643 733.37 433.643H716.779ZM716.779 477.382C714.697 477.382 713.009 479.07 713.009 481.153V502.268C713.009 504.35 714.697 506.038 716.779 506.038H733.37C735.452 506.038 737.14 504.35 737.14 502.268V481.153C737.14 479.07 735.452 477.382 733.37 477.382H716.779ZM713.009 524.891C713.009 522.809 714.697 521.121 716.779 521.121H733.37C735.452 521.121 737.14 522.809 737.14 524.891V546.007C737.14 548.089 735.452 549.777 733.37 549.777H716.779C714.697 549.777 713.009 548.089 713.009 546.007V524.891ZM716.779 564.859C714.697 564.859 713.009 566.548 713.009 568.63V589.745C713.009 591.828 714.697 593.516 716.779 593.516H733.37C735.452 593.516 737.14 591.828 737.14 589.745V568.63C737.14 566.548 735.452 564.859 733.37 564.859H716.779Z" fill="black"/>
</svg>
