<svg xmlns="http://www.w3.org/2000/svg" viewBox="0 0 511.83 172.73"><defs><style>.cls-1{fill:#0b2a44;}.cls-2{fill:#fd151b;}.cls-3{fill:#235789;}</style></defs><g id="Livello_2" data-name="Livello 2"><g id="Livello_1-2" data-name="Livello 1"><path class="cls-1" d="M140,75.62v38.56a23.33,23.33,0,0,1-11.31,16.16l-2.18,1.27V83.21a8.65,8.65,0,0,0-4.3-7.47L79.59,51,37,75.74a8.65,8.65,0,0,0-4.3,7.47v48.4l-2.2-1.27a23.36,23.36,0,0,1-11.31-16.16V75.62l.08-.21L26.3,56.54l6.38,17.17,14.13-8.37,3.46-19.09,2.64,15,1.21-.64,7.19-3.84,0-.32,2.71-18.29,2.34,15.35,0,.22,0-.26,4.87-2.79v.11l8.21-4.85,8.2,4.85v-.09l4.89,2.81,0,.22v-.17l2.37-15.4,2.73,18.34,0,.27,5.43,2.91,3.31,1.76,2.63-15,3.46,19.08,13.82,8.19,6.35-17.17,7.07,18.87Z"/><polygon class="cls-2" points="79.58 14.94 38.15 135.19 79.58 58.1 121.01 135.19 79.58 14.94"/><path class="cls-1" d="M230.75,76a16.93,16.93,0,0,0-6.57-6.54,19.31,19.31,0,0,0-9.49-2.33,17.48,17.48,0,0,0-7.44,1.55,13.94,13.94,0,0,0-5.57,4.56V67.42h-6.33v49.82H202V98.39a15.28,15.28,0,0,0,5.54,4.41,17.1,17.1,0,0,0,7.2,1.51,19.21,19.21,0,0,0,9.49-2.34,16.83,16.83,0,0,0,6.57-6.58,19.56,19.56,0,0,0,2.37-9.73A19.36,19.36,0,0,0,230.75,76Zm-5.92,16.4a11.74,11.74,0,0,1-4.4,4.55,13.05,13.05,0,0,1-12.56,0,11.34,11.34,0,0,1-4.4-4.55,13.9,13.9,0,0,1-1.58-6.7A13.39,13.39,0,0,1,203.5,79a11.8,11.8,0,0,1,4.41-4.51,12.25,12.25,0,0,1,6.22-1.62,12.62,12.62,0,0,1,6.3,1.58,11.54,11.54,0,0,1,4.4,4.5,14.71,14.71,0,0,1,0,13.42Z"/><path class="cls-1" d="M274,76.05a17.34,17.34,0,0,0-6.75-6.6,21.3,21.3,0,0,0-19.49,0,17.45,17.45,0,0,0-6.79,6.6,20.11,20.11,0,0,0,0,19.2,17.57,17.57,0,0,0,6.79,6.65,20.91,20.91,0,0,0,19.49,0A17.47,17.47,0,0,0,274,95.25a20.11,20.11,0,0,0,0-19.2Zm-5.82,16.31a11.44,11.44,0,0,1-4.36,4.55,13.11,13.11,0,0,1-12.59,0,11.61,11.61,0,0,1-4.4-4.55,14.63,14.63,0,0,1,0-13.42,11.41,11.41,0,0,1,4.4-4.5,13.33,13.33,0,0,1,12.59,0,11.25,11.25,0,0,1,4.36,4.5,15,15,0,0,1,0,13.42Z"/><path class="cls-1" d="M284.73,52.84V103.9h6.61V52.84Z"/><path class="cls-1" d="M308.83,53a4.5,4.5,0,0,0-3.19-1.21,4.35,4.35,0,0,0-3.2,1.28,4.1,4.1,0,0,0-1.27,3.06,4,4,0,0,0,1.27,3,4.43,4.43,0,0,0,3.2,1.23,4.29,4.29,0,0,0,3.19-1.26A4.25,4.25,0,0,0,310.1,56,3.92,3.92,0,0,0,308.83,53Zm-6.5,14.41V103.9h6.61V67.42Z"/><path class="cls-1" d="M345.13,87.72a10.6,10.6,0,0,0-4.65-2.92,52.64,52.64,0,0,0-7.11-1.61c-2.2-.42-3.91-.78-5.12-1.1a7.7,7.7,0,0,1-3.07-1.52,3.47,3.47,0,0,1-1.24-2.82,4.17,4.17,0,0,1,2.2-3.66,12.28,12.28,0,0,1,6.4-1.37,19.07,19.07,0,0,1,10.53,2.89l2.82-5.22a19.2,19.2,0,0,0-6-2.41,29.69,29.69,0,0,0-7.29-.89c-4.63,0-8.31,1-11.07,3a9.36,9.36,0,0,0-4.13,8,8.45,8.45,0,0,0,2,6,11,11,0,0,0,4.79,3,45.25,45.25,0,0,0,7.19,1.58c2.16.37,3.82.7,5,1a7.45,7.45,0,0,1,2.94,1.4,3.3,3.3,0,0,1,1.16,2.62q0,5-8.66,5a24.06,24.06,0,0,1-7-1A19.3,19.3,0,0,1,319,94.8L316.23,100a18.88,18.88,0,0,0,6.46,3.06,30.71,30.71,0,0,0,8.6,1.21c4.87,0,8.71-1,11.54-2.93a9.15,9.15,0,0,0,4.23-7.89A8.13,8.13,0,0,0,345.13,87.72Z"/><path class="cls-1" d="M390,76a16.79,16.79,0,0,0-6.57-6.54A19.26,19.26,0,0,0,374,67.09a17.54,17.54,0,0,0-7.44,1.55A13.94,13.94,0,0,0,361,73.2V67.42h-6.33v49.82h6.6V98.39a15.18,15.18,0,0,0,5.56,4.41,16.91,16.91,0,0,0,7.18,1.51,19.15,19.15,0,0,0,9.49-2.34A16.7,16.7,0,0,0,390,95.39a19.56,19.56,0,0,0,2.38-9.73A19.37,19.37,0,0,0,390,76Zm-5.92,16.4a11.54,11.54,0,0,1-4.4,4.55,13.05,13.05,0,0,1-12.56,0,11.34,11.34,0,0,1-4.4-4.55,13.79,13.79,0,0,1-1.58-6.7A13.49,13.49,0,0,1,362.79,79a11.85,11.85,0,0,1,4.4-4.51,12.35,12.35,0,0,1,6.24-1.62,12.56,12.56,0,0,1,6.29,1.58,11.34,11.34,0,0,1,4.4,4.5,14.63,14.63,0,0,1,0,13.42Z"/><path class="cls-1" d="M462.26,97.21a12,12,0,0,1-5.65,1.31,13.14,13.14,0,0,1-6.43-1.58,11.32,11.32,0,0,1-4.47-4.5,15,15,0,0,1,0-13.5,11.45,11.45,0,0,1,4.47-4.5,13.14,13.14,0,0,1,6.43-1.58,12,12,0,0,1,5.65,1.31,10.94,10.94,0,0,1,4.26,3.93l5-3.24a14.23,14.23,0,0,0-6-5.78,19,19,0,0,0-8.84-2,20.45,20.45,0,0,0-9.94,2.36,17.44,17.44,0,0,0-6.84,6.6,19.75,19.75,0,0,0,0,19.2,17.57,17.57,0,0,0,6.84,6.65,20.26,20.26,0,0,0,9.94,2.41,18.77,18.77,0,0,0,8.84-2,14.35,14.35,0,0,0,6-5.81l-5-3.16A11,11,0,0,1,462.26,97.21Z"/><path class="cls-1" d="M511.83,85.87a20.28,20.28,0,0,0-2.29-9.77,16.79,16.79,0,0,0-6.4-6.65,18.29,18.29,0,0,0-9.34-2.36,18.65,18.65,0,0,0-9.38,2.36,17.07,17.07,0,0,0-6.54,6.65,20.33,20.33,0,0,0,.06,19.2,17,17,0,0,0,6.93,6.64,23.28,23.28,0,0,0,18.48.86,16.35,16.35,0,0,0,6.16-4.41l-3.66-4.27a13.54,13.54,0,0,1-10.53,4.4,13.8,13.8,0,0,1-9-2.92,11.44,11.44,0,0,1-4.24-7.74h29.6C511.79,87,511.83,86.38,511.83,85.87Zm-29.72-2.76a11.76,11.76,0,0,1,3.75-7.57,11.41,11.41,0,0,1,7.94-2.88,11.29,11.29,0,0,1,7.95,2.92,11.8,11.8,0,0,1,3.77,7.53Z"/><polygon class="cls-2" points="414.98 49.84 390.86 119.88 414.98 74.98 439.11 119.88 414.98 49.84"/><path class="cls-3" d="M108.24,133.61a32.84,32.84,0,0,0-27.18-17.35c-.36,0-.72,0-1.1,0h-.79a32.81,32.81,0,0,0-28.33,17.5l-2.43,4.51a40.93,40.93,0,0,1,62.33,0Zm0,0a32.84,32.84,0,0,0-27.18-17.35c-.36,0-.72,0-1.1,0h-.79a32.81,32.81,0,0,0-28.33,17.5l-2.43,4.51a40.93,40.93,0,0,1,62.33,0Z"/><path class="cls-3" d="M79.59,172.73A35.67,35.67,0,0,1,61.74,168L17.86,142.63A35.81,35.81,0,0,1,0,111.7V61A35.81,35.81,0,0,1,17.86,30.1L61.74,4.77a35.8,35.8,0,0,1,35.71,0L141.33,30.1A35.82,35.82,0,0,1,159.18,61V111.7a35.82,35.82,0,0,1-17.85,30.93L97.45,168A35.71,35.71,0,0,1,79.59,172.73Zm0-163.16a26.1,26.1,0,0,0-13.07,3.49L22.64,38.39A26.23,26.23,0,0,0,9.57,61V111.7a26.2,26.2,0,0,0,13.07,22.63l43.88,25.34a26.21,26.21,0,0,0,26.14,0l43.88-25.33a26.23,26.23,0,0,0,13.07-22.64V61a26.23,26.23,0,0,0-13.07-22.64L92.66,13.06A26.1,26.1,0,0,0,79.59,9.57Z"/></g></g></svg>