<?xml version="1.0" encoding="UTF-8"?>
<svg id="Layer_1" xmlns="http://www.w3.org/2000/svg" viewBox="0 0 1920 822.86">
  <defs>
    <style>
      .cls-1 {
        fill: #010101;
      }

      .cls-2 {
        fill: #010000;
      }

      .cls-3 {
        fill: #493528;
      }

      .cls-4 {
        fill: #553c2c;
      }

      .cls-5 {
        fill: #d72e25;
      }

      .cls-6 {
        fill: #4c382b;
      }

      .cls-7 {
        fill: #d53b31;
      }

      .cls-8 {
        fill: #fdfbfb;
      }

      .cls-9 {
        fill: #020101;
      }

      .cls-10 {
        fill: #453225;
      }

      .cls-11 {
        fill: #020100;
      }

      .cls-12 {
        fill: #fff;
      }

      .cls-13 {
        fill: #fc6601;
      }

      .cls-14 {
        fill: #46352b;
      }

      .cls-15 {
        fill: #fb6502;
      }

      .cls-16 {
        fill: #010100;
      }

      .cls-17 {
        fill: #fd6601;
      }

      .cls-18 {
        fill: #070606;
      }
    </style>
  </defs>
  <path class="cls-12" d="M379.54,337.18c-5.18.38-6.79,3.09-6.78,8.27.13,102.93.1,205.87.1,308.8,0,6.94,0,6.89,6.89,5.36,52.8-11.67,105.95-21.4,159.43-29.4,44.78-6.7,89.72-12.06,134.76-16.61,11.59-1.17,23.2-2.19,34.8-3.26,1.79-.17,3.52-.49,5.19.9,8.52,7.14,16.7,14.63,25.36,22.96-13.19,1.1-25.53,2.1-37.86,3.17-32.83,2.85-65.59,6.47-98.3,10.46-36.67,4.47-73.1,10.72-109.86,14.49-7.59.78-15.04,2.9-22.64,3.7-4.26.44-4.58,2.42-4.5,5.81.34,15.47.62,30.94.68,46.41.06,14.15-.27,28.3-.24,42.45,0,3.53-1,5.38-4.79,5.09-15.39-1.2-30.55,1.44-45.75,3-29.47,3.02-58.91,6.35-88.37,9.5-33.43,3.57-66.87,7.13-100.31,10.6-30.78,3.2-61.58,6.22-92.35,9.45-25.98,2.72-51.94,5.63-77.91,8.44-6.28.68-12.57,1.26-18.8,1.88-.71-1.97.86-2.6,1.64-3.5,33.31-38.3,66.65-76.59,100.02-114.85,11.25-12.9,22.54-25.77,33.99-38.49,2.22-2.47,2.4-3.54-.49-5.59-53.41-37.99-106.75-76.09-160.1-114.17-1.45-1.04-2.84-2.16-5.11-3.89,7.31-.93,13.66-1.87,20.05-2.53,39.9-4.15,79.82-8.16,119.71-12.35,39.88-4.19,79.74-8.56,119.62-12.8,23.17-2.46,46.35-4.83,69.52-7.21,7.09-.73,7.58-.99,7.34-8.16-1.16-34.45-.21-68.9-.3-103.35-.04-19.14.07-38.29-.28-57.43-.09-4.8,2-6.52,6.06-7.39,29.91-6.44,59.67-13.6,89.76-19.19,17.17-3.19,34.37-6.22,51.59-9.14,3.88-.66,5.29-2.39,5.26-6.3-.14-18.99-.25-37.98-.01-56.96.25-19.97.1-39.94.01-59.91-.13-29.91.16-59.82.28-89.73.02-4.63.23-9.27.05-13.9-.11-2.76.62-3.43,3.36-2.79,56.28,13.25,112.57,26.48,168.89,39.62,46.09,10.75,92.21,21.35,138.3,32.06,24.76,5.75,49.51,11.58,74.25,17.39,5.61,1.32,5.63,1.18,6.31-4.64,2.76-23.79,5.68-47.57,8.44-71.36,1.94-16.69,3.65-33.4,5.57-50.08.89-7.75,1-7.74,8.55-7.74,33.83,0,67.66.09,101.49-.1,4.94-.03,6.92,1.21,7.47,6.49,3.63,35.08,7.64,70.12,11.52,105.17.69,6.28,1.56,12.56,1.96,18.86.26,4.12,1.97,4.4,5.5,3.57,36.88-8.7,73.79-17.28,110.69-25.86,90.33-21.02,180.66-42,270.96-63.14,3.81-.89,4.01.3,4.01,3.41-.06,73.62-.03,147.24-.15,220.86,0,2.95.63,4.02,3.54,4.55,25.99,4.78,52.01,9.43,77.91,14.68,22.47,4.55,44.78,9.84,67.17,14.78,3.7.82,3.83,3.51,3.82,6.52-.04,21.32-.09,42.64,0,63.96.09,23.13.38,46.25.45,69.38.03,10.13-.14,20.27-.55,30.39-.15,3.7,1.18,4.86,4.69,5.19,21.7,2.09,43.39,4.28,65.07,6.58,18.87,2,37.71,4.25,56.58,6.28,30.12,3.25,60.25,6.42,90.37,9.61,33.44,3.55,66.87,7.08,100.31,10.62,5.73.61,11.46,1.2,18.37,1.93-2.42,1.86-3.89,3.06-5.42,4.15-52.57,37.46-105.16,74.92-157.73,112.38-5.66,4.04-5.69,4.08-1.29,9.11,43.63,49.84,87.27,99.68,130.91,149.52,1.37,1.57,2.68,3.2,4.64,5.53-17-1.37-33.01-2.7-48.98-4.6-23.3-2.77-46.64-5.27-69.97-7.77-29.78-3.19-59.57-6.26-89.36-9.37-24.5-2.56-49.01-5.08-73.51-7.66-32.93-3.46-65.86-6.98-98.79-10.44-14.4-1.51-28.77-3.66-43.3-2.99-4.6.21-6.09-1.47-6.06-6.05.21-27.98.19-55.96.24-83.94.01-7.02-.23-7.58-6.9-8.27-12.21-1.27-24.02-4.66-36.5-5.03-9.04-.27-17.95-4.43-27.21-5.77-37.72-5.43-75.49-10.46-113.39-14.47-31.12-3.29-62.27-6.2-93.49-8.37-1.63-.11-3.35.04-4.81-.97-.09-1.28.58-2.28,1.45-3.02,7.79-6.64,14.77-14.18,22.8-20.54.92-.73,2.02-1.11,3.2-1.28,8.67.02,17.25,1.24,25.84,2.03,25.34,2.33,50.66,4.81,75.93,7.78,79.72,9.39,158.88,22.15,237.29,39.43,7.23,1.59,6.04,2.93,9.63-4.43,6.39-1.93,6.42-1.93,6.42-8.86.01-101.1.01-202.19,0-303.29,0-7.72-.44-8.18-7.61-9.75-63.5-13.95-127.41-25.68-191.85-34.34-36.98-4.97-74.02-9.42-111.2-12.77-14.42-1.3-28.91-1.9-43.24-4.13-8.98-4.93-15.83-12.4-23.02-19.45-1.08-1.06-.79-2.06.63-2.68,5.68-1.49,11.3.17,16.87.61,26.22,2.03,52.41,4.39,78.57,7.18,38.1,4.06,76.11,8.85,113.97,14.81,4.44.7,7.05-.16,8.03-4.65,6.6-1.07,7.07-5.52,7.05-11.19-.17-55.93-.1-111.87-.1-167.8,0-.33,0-.67,0-1-.02-8.53-.26-8.79-8.35-6.93-48.69,11.2-97.31,22.71-145.98,33.99-49.64,11.5-99.27,23.11-148.92,34.58-15.58,3.6-31.12,7.34-46.74,10.78-3.35.74-5.92,2.12-6.85,5.64-.56.86-1.3,1.57-2.25,1.88-3.56,1.18-4.18,3.77-3.72,7.09,2.01,14.59,3.54,29.24,5.15,43.88.61,5.59,1.1,11.2,1.73,16.79.28,2.47.53,4.97,2.56,6.78,1.96,1.76,4.48.88,6.69,1.45,1.57.4,3.31,1.23,1.53,2.97-6.51,6.33-12.42,13.41-20.95,17.33-6.52,1.17-12.94-.59-19.41-.6-33.29-.04-66.58-.18-99.86.09-9.46.08-18.91,1.43-28.39.62-6.26-1.36-9.12-7.3-14.05-10.51-2.05-1.33-3.56-3.42-5.43-5.05-1.1-.95-2.71-1.9-2.16-3.56.45-1.35,2.13-1.35,3.44-1.5.99-.11,1.97-.23,2.85-.73,2.49-1.13,1.94-4.44,4.14-5.79,4.07-.96,5.49-3.87,5.88-7.68,2.05-20.02,4.56-39.98,6.95-59.96.81-6.71.09-7.78-6.55-9.31-39.58-9.11-79.11-18.43-118.68-27.6-37.29-8.65-74.58-17.35-111.86-26.06-36.79-8.6-73.64-16.96-110.39-25.75-.97-.23-1.97-.36-2.94-.59-3.04-.72-5.29-.26-5.67,3.45-.12,1.15-.52,2.28-1.67,2.92-3.63.41-5.13,2.46-5,6.06.1,2.99,0,5.99,0,8.99,0,53.28,0,106.55,0,159.83,0,1.33,0,2.66,0,4,.04,7.72.23,7.97,7.96,6.85,33.79-4.91,67.61-9.6,101.56-13.33,23.16-2.54,46.36-4.8,69.58-6.74,10.28-.86,20.58-1.48,30.84-2.61,2.65-.29,5.32-.45,7.94.2,2.38.78,2.16,2.48.82,3.76-7.33,7-14.14,14.63-23.23,19.57-20.15,2.34-40.38,3.87-60.55,6.02-31.11,3.33-62.14,7.17-93.11,11.53-47.48,6.68-94.68,14.97-141.67,24.47-12.89,2.61-25.68,5.67-38.58,8.21-4.06.8-6.24,3.39-8.61,6.12Z"/>
  <path class="cls-5" d="M722.88,279.81c7.9-6.9,16.14-13.43,23.3-21.15,1.14-3.92,5.38-4.87,7.52-7.84,8.85-7.29,17.19-15.17,25.65-22.9,8.22-7.51,16.67-14.75,24.74-22.43,4.28-4.08,6.96-3.62,11.58.56,14.53,13.14,28.53,26.89,43.91,39.09,3.02,3.07,6.17,5.82,10.93,5.5.78-.05,1.57.41,1.81,1.35-1.78.2-3.56.41-6.31.72,7.02,6.32,13.53,12.2,20.05,18.07,4.22,1.87,7.18,5.41,10.43,8.4,15.41,14.18,31.15,27.98,46.59,42.11,5.14,4.7,10.04,9.69,15.58,13.97,2.06,1.59,3.54,1.67,5.58-.16,13.86-12.41,27.52-25.05,41.5-37.34,10.34-9.09,19.67-19.35,31.18-27.09,6.5-5.8,13-11.6,20.16-17.99-3.48-.26-6.02-.46-8.57-.65.62-1.84,2.33-1.76,3.64-1.62,4.74.48,8.04-1.85,10.92-5.16,8.37-6.29,15.8-13.68,23.62-20.61,7.45-6.6,14.78-13.34,22.15-20.03,2.65-2.4,5.25-2.46,8.06-.31,6.74,5.15,12.48,11.42,18.89,16.95,10.93,9.42,21.24,19.56,32.45,28.67,2.62,2.92,6.48,4.73,7.94,8.71,7.31,6.67,14.62,13.34,21.93,20.01,6.61,2.54,10.26,8.74,15.69,12.77,3.96,2.94,7.24,6.78,11.05,9.99,3.9,3.28,4.07,5.8.34,9.1-11.9,10.55-23.51,21.43-35.68,31.67-1.38,1.16-3.16,3.22-4.61-.12-1.33-6.69-1.51-6.72-8.48-6.94-17.3-.56-34.57-1.82-51.85-2.68-14.79-.74-29.57-1.9-44.38-2.22-7.17-.16-14.25-1.54-21.45-1.1-3.12.19-4.85,1.09-5.19,4.56-.92,9.28-1.23,18.6-1.89,27.89-.55,7.72.33,8.38,7.89,8.41,8.17.03,16.26,1.21,24.45,1.19,5.8-.02,7.77,2.15,7.46,8.19-.6,11.79-1.44,23.58-2.46,35.34-.56,6.45.11,13.03-1.77,19.35-.68,2.64-3.08,3.67-4.94,5.22-3.17,2.64-3.25,4.38-.31,7.27,1.63,1.6,3.58,2.91,4.17,5.33.76,3.68-.17,7.28-.32,10.92-.51,12.62-1.57,25.21-2.3,37.82-.99,17.09-2.31,34.16-3.25,51.26-.19,3.37.69,4.88,4.23,5.04,11.79.55,23.58,1.15,35.36,1.9,9.07.57,9.32.31,10.17-8.47,1.04-10.75,1.73-21.53,2.42-32.31.43-6.63.98-13.25,1.39-19.88,1.56-3.71,3.46-1.34,4.87-.04,6.82,6.29,13.76,12.44,20.71,18.58,9.43,8.33,18.48,17.09,28.32,24.96.49.45,1.01.91,1.24,1.52,4.54,11.57,13.36,18.44,24.71,22.53.62.22,1.16.63,1.69,1.02,3.24,2.86,6.04,6.17,9.45,8.88,3.89,3.09,3.96,4.92.55,8.62-6.09,6.61-13.48,11.87-19.5,18.55-2.67,2.48-5.4,4.87-8.76,6.41-8.77,7.95-17.53,15.9-26.3,23.84-11.43,10.13-22.87,20.24-34.27,30.41-6.45,5.75-12.94,11.46-19.16,17.45-3.04,2.93-5.25,2.98-8.4.1-21.11-19.26-42.36-38.37-63.54-57.56-1.36-1.24-2.68-2.49-4.43-3.15-10.21-8.39-19.78-17.51-29.69-26.24-15.34-13.94-30.85-27.69-45.95-41.9-2.58-2.42-4.94-2.7-7.8-.11-15.71,14.28-31.5,28.46-47,42.96-8.52,6.66-16.19,14.3-24.32,21.4-1.63,1.43-3.14,2.97-5.14,3.88-21.77,19.56-43.55,39.1-65.28,58.7-6.09,5.49-6.58,5.5-12.66,0-27.95-25.36-55.71-50.93-84.2-75.69-5.35-3.15-9.39-7.86-14.08-11.79-2.41-2.02-4.52-4.39-6.97-6.4-4.25-3.5-4.42-5.77-.38-9.31,7.11-6.25,14.03-12.7,21.11-18.98,9.82-8.7,19.48-17.56,29.21-26.36,2.1-1.9,4.03-4.82,7.65-2.71,1.13,1.3,1.64,2.89,2.22,4.45,6.14,16.53,18.52,24.25,35.68,24.67,15.14.37,30.25-.82,45.36-1.74,4.64-.28,9.31.04,13.94-.86,19.01-3.68,30.07-16.32,30.69-35.71.47-14.47-.71-28.91-1.66-43.34-.49-7.46-.78-14.96-1.01-22.41-.52-17.45-1.74-34.86-2.41-52.31-.84-21.75-2.34-43.48-3-65.25-.22-7.29-1.27-7.51-8.35-7.42-11.65.14-23.26,1.34-34.91,1.33-5.95,0-6.81.63-6.47,6.64,1,17.59,1.81,35.19,2.47,52.79.44,11.93,2.1,23.85.93,35.82-.9,2.12-2.59,2.14-3.99.94-8.95-7.71-18.12-15.18-26.08-23.98-1.5-12.06-2-24.2-2.41-36.33-.32-9.48-1.29-18.92-1.21-28.42.04-4.8-1.2-5.42-6.19-5.55-12.5-.32-24.93,1.49-37.44,1.18-5.19-.13-6.13,1.27-5.57,6.4.42,3.82.72,7.62,0,11.43-2.14,3.9-3.85.67-5.29-.54-5.95-5.03-11.65-10.34-17.37-15.63-8.16-7.54-16.8-14.53-24.71-22.34-4.81-4.75-5.02-6.48.16-10.92,8.03-6.89,14.89-15.13,23.98-20.8Z"/>
  <path class="cls-17" d="M754.09,527.27c-5.7,2.96-9.59,8.1-14.34,12.19-13.79,11.88-27.13,24.27-40.67,36.44-4.68,4.21-4.33,4.53.41,8.97,6.51,6.1,13.76,11.45,19.47,18.4-28.96,3.02-57.93,5.9-86.87,9.11-35.71,3.96-71.29,8.91-106.78,14.53-47.3,7.49-94.35,16.33-141.07,26.86-3.51.79-4.66-.12-4.41-3.5.09-1.16.01-2.33.01-3.49,0-101.04,0-202.08-.01-303.12,0-2.15-.2-4.31-.31-6.46-.13-4.5,2.35-6.2,6.53-7.12,45.96-10.18,92.16-19.02,138.63-26.51,37.62-6.06,75.36-11.28,113.22-15.57,28.27-3.2,56.55-6.45,84.96-8.18-7.35,7.91-15.65,14.81-23.7,21.97-3.67,3.27-3.56,5.48.05,8.69,15.26,13.55,30.34,27.31,45.48,41,3.02,3.44,2.68,7.79,2.78,11.82.6,23.93,2.22,47.82,3.3,71.73.97,21.25,1.78,42.51,2.96,63.75.37,6.62.65,13.28,1.51,19.89.38,2.92.98,5.99-1.17,8.62Z"/>
  <path class="cls-8" d="M881.12,620.26c9-9.64,19.01-18.16,29.17-26.54,5.85-1.29,11.78-1.95,17.77-1.96,25.07,0,50.14,0,75.22,0,2.99,0,6.01-.15,8.67,1.61,9.22,8.12,18.45,16.22,27.62,24.38.69.61.98,1.66,1.46,2.5-36.03-1.46-72.08-.55-108.12-.65-17.26-.05-34.53.42-51.79.65Z"/>
  <path class="cls-17" d="M1204.92,602.4c5.51-7.13,12.99-12.23,19.3-18.54,3.12-3.12,3.46-5.04-.46-7.69-3.39-2.3-6.35-5.29-8.74-8.72,1.45-1.54,3.31-1.35,5.13-1.16,16.4,1.68,32.76,3.66,49.17,5.28,17,1.67,31.44-2.61,40.76-18.17,3.67-6.13,5.21-12.99,6.1-19.94,7.49-58.45,14.86-116.92,22.52-175.36.86-6.56.42-7.15-6.14-7.82-12.26-1.25-24.51-2.57-36.76-3.85-4.54-.47-5.69.34-6.25,4.9-4.89,39.49-10.06,78.94-15.11,118.4-2.2,17.17-4.28,34.36-6.72,51.5-1.17,8.2-2.3,8.96-10.31,8.03-3.97-.46-7.91-1.13-11.91-1.33-7.43-.37-8.91-2-7.99-9.21,3.09-24.28,6.28-48.54,9.35-72.82,4.05-32.04,8.22-64.07,12.33-96.1.8-6.24-.08-7.14-6.33-7.86-11.41-1.32-22.85-2.35-34.26-3.67-6.55-.76-7.49.02-8.32,6.53-6.1,47.89-12.34,95.76-18.45,143.65-1.83,14.33-4.91,28.56-4.42,43.17.12,3.55,2.02,7.2-.18,10.73-5.64-2.77-9.56-7.68-14.14-11.69-12.76-11.15-25.09-22.78-37.59-34.23-2.14-1.22-1.24-3.25-1.17-4.93.85-20.59,2.57-41.14,3.8-61.71.73-12.11,2.03-24.19,2.3-36.33.07-3.34.59-6.62,1.41-9.86,2.1-3.67,5.4-6.03,8.96-8.11,7.31-1.62,14.53.63,21.82.52,9.04-.14,9.03-.03,10.18-8.85.81-6.25.72-12.58,1.65-18.83.26-1.76-.06-3.74,1.9-4.82,12.15-10.79,24.28-21.58,36.44-32.35,5.34-4.73,5.14-5.67-.09-10.22-8.36-7.27-16.43-14.87-24.63-22.33,31.02,2.59,62.03,5.22,92.97,8.74,39.53,4.49,78.94,9.87,118.24,16.04,45.05,7.08,89.74,15.97,134.29,25.66,12.99,2.83,11.51.95,11.52,14.26.03,77.28.06,154.57-.01,231.85-.02,23.81-.35,47.62-.6,71.42-.08,7.35-.17,7.35-7.34,6.74-2.16.65-4.28.24-6.41-.23-59.23-13.13-118.95-23.49-179.03-31.85-38.92-5.42-77.95-9.91-117.08-13.54-10.94-1.01-21.88-1.92-32.81-2.96-2.47-.24-5.03-.36-6.91-2.37Z"/>
  <path class="cls-17" d="M109.42,767.86c12.62-14.46,25.23-28.92,37.84-43.39,17.71-20.32,35.39-40.67,53.14-60.96,5.11-5.84,10.39-11.52,15.6-17.27.36-.36.59-.8.84-1.22,4.73-7.9,4.68-7.82-2.72-13.12-38.7-27.69-77.51-55.24-116.14-83.03-1.45-1.04-3.27-1.77-3.87-3.71-1.98-1.66-3.97-3.32-6.69-5.6,13.08-1.43,25.24-2.79,37.41-4.09,30.12-3.21,60.25-6.42,90.38-9.58,30.3-3.18,60.6-6.3,90.9-9.47,12.91-1.35,25.83-2.65,38.73-4.18,3.76-.45,5.07.66,5.09,4.47.12,21.14.46,42.28.64,63.42.25,28.97.39,57.94.65,86.9.05,5.65.52,11.3.61,16.95.04,2.37.91,4.17,2.61,5.67,17.09,15.09,34.18,30.18,51.28,45.26.57.5,1.8.45,1.56,1.59-.26,1.22-1.42,1.17-2.39,1.37-3.26.68-6.69.11-9.86,1.38-3.3,2.52-7.34,1.93-11.04,2.31-41.01,4.23-82,8.74-123,13.06-43.98,4.64-87.98,9.15-131.95,13.95-5.12.56-10.23,1.33-15.4,1.42-1.72.03-3.86.61-4.23-2.14Z"/>
  <path class="cls-17" d="M1711.11,637.66c.67,3.53,3.58,5.5,5.72,7.95,34.61,39.6,69.29,79.15,103.94,118.72,1.16,1.32,2.24,2.7,3.84,4.62-5.42-.41-9.86-.75-14.29-1.09-2.17,1.32-4.5.85-6.81.59-29.9-3.42-59.85-6.32-89.77-9.59-33.39-3.65-66.8-7.02-100.19-10.67-26.44-2.89-52.92-5.49-79.37-8.36-2.62-.28-5.4-.16-7.21-2.64,7.9-8.75,17.34-15.83,25.94-23.82,6.31-5.86,12.88-11.45,19.33-17.16,1.22-1.08,2.72-1.97,2.88-3.85,4.56-4.2,6.88-9.28,6.22-15.56-.07-.66,0-1.33,0-2-.76-49.41,1.43-98.8,1.02-148.21-.02-2.47-.27-5.04,1.54-7.14.07-.99.26-1.99.19-2.97-.24-3.4.87-4.75,4.63-4.31,14.54,1.71,29.11,3.11,43.66,4.65,27.13,2.87,54.25,5.77,81.37,8.64,30.27,3.2,60.54,6.37,90.81,9.57,12.9,1.37,25.79,2.78,38.69,4.19.78.08,1.55.26,3.31.56-6.39,4.92-12.05,9.39-17.82,13.69-6.24,4.65-12.58,9.16-18.9,13.71-5.24,3.77-10.42,7.63-15.76,11.25-6.57,4.45-12.97,9.11-19.38,13.79-4.7,3.43-9.65,6.51-14.18,10.18-1.74.28-2.59,1.73-3.73,2.81-1.4.27-2.42,1.11-3.28,2.18-1.7.31-2.58,1.71-3.7,2.79-1.42.26-2.43,1.13-3.3,2.2-1.7.31-2.58,1.71-3.7,2.79-1.41.26-2.42,1.13-3.29,2.2-1.7.32-2.59,1.71-3.71,2.8-1.41.26-2.42,1.13-3.29,2.2-1.67.32-2.58,1.66-3.67,2.76-1.38.34-2.46,1.13-3.33,2.24-1.66.33-2.58,1.63-3.65,2.74-2.6.55-3.66,3.41-6.17,4.1-1.59,1.07-3.52,1.68-4.59,3.44Z"/>
  <path class="cls-17" d="M1168.14,250.74c-4.22-1.21-6.7-4.85-9.73-7.51-12.61-11.03-24.84-22.51-37.21-33.82-.74-.67-1.4-1.43-2.17-2.06-6.13-4.99-6.01-4.84-11.8.44-13.12,11.96-26.36,23.78-39.6,35.61-1.09.98-2.52,1.57-3.8,2.34-8.54,3.37-13.28.66-14.16-8.4-1.87-19.21-4.18-38.38-6.4-57.55-.23-1.99-.62-3.98.56-5.82-.96-4.89,1.98-6.08,6.02-7.01,79.38-18.36,158.74-36.82,238.1-55.27,36.12-8.4,72.23-16.84,108.34-25.25,6.18-1.44,6.52-1.17,6.52,5.18,0,58.79.02,117.58-.02,176.37,0,9.8,0,7.97-7.64,7.64-1.92.96-3.92.56-5.88.26-40.67-6.24-81.5-11.18-122.42-15.43-24.66-2.56-49.38-4.56-74.09-6.52-8.21-.65-16.73.24-24.61-3.2Z"/>
  <path class="cls-17" d="M859.31,245.87c-3.47-.74-5.6-3.56-7.99-5.68-12.5-11.12-24.88-22.39-37.03-33.88-3.5-3.31-6.11-3.05-9.34-.08-15.4,14.09-30.85,28.12-46.26,42.2-1.49,1.36-3.05,2.54-4.89,3.36-3.49,1.86-7.37,2.05-11.16,2.31-66.96,4.62-133.57,12.3-199.93,22.35-1.32.2-2.63.46-3.96.54-5.9.36-8.23-1.43-8.21-7.23.04-11.97-.86-23.96.71-35.9.33-2.48.18-4.99.18-7.48,0-41.77,0-83.55,0-125.32,0-2.49-.25-5.01.73-7.4q.85-8.68,9.75-6.6c113.48,26.44,226.95,52.87,340.43,79.31.49.11.98.19,1.47.29,7.81,1.66,7.93,1.67,7.04,9.41-2.41,20.98-5.06,41.93-7.3,62.93-.54,5.05-2.63,7.19-7.55,6.8-5.56,2.23-11.12,2.03-16.7.08Z"/>
  <path class="cls-17" d="M942.37,218.64c-.57,5.91-1.48,11.81-1.6,17.73-.11,5.48-1.72,8.76-7.8,8.21-1.44,1.38-3.27,1.54-5.12,1.56-7.82.06-15.64.14-23.45-.02-5.87-.12-7-1.48-6.31-7.36,3.64-31.03,7.29-62.07,10.98-93.1,4.32-36.31,8.47-72.64,13.01-108.92.32-2.53-.11-4.97-.42-7.44,1.53-.22,3.01-.49,2.94-2.55-.14-4.32,2.65-4.57,5.97-4.56,24.8.06,49.6.12,74.4-.05,4.68-.03,6.4,1.74,6.9,6.26,6.9,62.6,13.92,125.18,20.91,187.77.94,8.42,1.79,16.85,2.87,25.25.32,2.48-.45,3.42-2.83,3.38-1.66-.03-3.32,0-4.99.02-.9.84-2.01,1.21-3.19,1.22-8.12.08-16.27.73-24.36-.48-5.63-.84-6.73-1.88-7.4-7.59-.64-5.43-1.29-10.86-1.52-16.34-.29-7.26-1.46-8.37-8.59-8.4-10.12-.05-20.25.14-30.37-.08-4.63-.1-8.13,1.06-10.04,5.52Z"/>
  <path class="cls-17" d="M1036.91,270.68c-8.24,7.69-16.42,15.45-24.74,23.05-8.83,8.05-17.81,15.93-26.71,23.9-6.92,6.21-13.83,12.42-20.69,18.69-2.25,2.05-4.28,2.12-6.56.09-4.46-3.96-9.06-7.78-13.49-11.78-18.59-16.81-37.15-33.66-55.7-50.52-1.09-1-1.98-2.22-2.96-3.34,46.28-1.15,92.57-1.95,138.86-.35,3.99.14,7.99.17,11.99.25Z"/>
  <path class="cls-9" d="M532.15,93.64c.14,1.81.41,3.61.42,5.42.02,44.1.05,88.19,0,132.29-.01,12.8-.28,25.61-.38,38.41-.05,6.29.26,6.6,6.46,5.73,17.29-2.42,34.55-5.04,51.85-7.4,30.65-4.19,61.38-7.72,92.19-10.48,21.2-1.9,42.42-3.64,63.63-5.43,2.48-.21,4.98-.27,7.47-.4-2.08,2.8-4.88,4.79-7.61,6.88-15.98.13-31.85,1.96-47.73,3.37-30.48,2.7-60.96,5.6-91.3,9.59-25.39,3.34-50.76,6.84-76.08,10.6-4.67.69-5.65-.4-5.64-4.88.13-59.58.08-119.17.09-178.75,0-6.58.02-6.58,6.64-4.94Z"/>
  <path d="M1204.92,602.4c20.2,1.99,40.4,4.02,60.61,5.97,29.65,2.86,59.22,6.44,88.74,10.43,38.91,5.26,77.68,11.41,116.28,18.58,25.18,4.67,50.27,9.8,75.28,15.31.47.1.89.44,1.33.67-.01,1-.13,2.01-.01,2.99.45,3.7-1.09,4.62-4.6,3.85-16.06-3.53-32.11-7.08-48.23-10.31-44.32-8.88-88.88-16.3-133.64-22.62-41.33-5.83-82.78-10.51-124.31-14.59-13.07-1.29-26.16-2.35-39.24-3.51,2.21-2.7,5.06-4.67,7.8-6.76Z"/>
  <path d="M1526.98,737.2c11.28,2.21,22.77,2.76,34.16,4.03,30.44,3.38,60.9,6.51,91.35,9.72,32.94,3.47,65.88,6.87,98.82,10.38,19.68,2.1,39.35,4.36,59.02,6.54,1.91,2.22,3.83,4.45,6.69,7.77-99.62-10.54-197.93-20.94-297.36-31.46,2.89-2.76,5.1-4.87,7.32-6.98Z"/>
  <path class="cls-17" d="M387.59,684.88c-.93-1.31-1.86-2.62-3.1-4.38,15.26-3.43,30.25-6.8,45.25-10.16,3.73-.83,7.5-1.47,11.19-2.45,3.15-.84,4.28.24,4.27,3.37-.04,21.77-.02,43.53-.02,66.17-2.76-2.28-4.96-4.09-7.16-5.91-2.91-.32-4.49-2.64-6.37-4.41-4.59-4.32-9.22-8.62-13.79-12.96-10-9.48-20.16-18.79-30.09-28.35-.23-.22-.25-.57-.19-.92Z"/>
  <path class="cls-17" d="M1488.8,675.43c.4-8.52.4-8.5,8.62-6.76,15.25,3.23,30.51,6.43,45.77,9.64,1.28.27,2.67.25,4.05,1.66-7.72,7.25-15.4,14.54-23.15,21.74-11.66,10.83-23.37,21.61-35.06,32.4-1.95-1.82-1.67-4.27-1.68-6.55-.06-15.32-.06-30.64,0-45.96,0-2.15-.1-4.37,1.46-6.17Z"/>
  <path d="M109.42,767.86c.63,1.46,1.81,1.07,2.97.94,50.9-5.42,101.8-10.84,152.71-16.24,41.32-4.38,82.64-8.74,123.96-13.08,1.98-.21,3.98-.15,5.98-.22,1.61,1.32,3.21,2.65,5.85,4.82-99.64,10.55-198.26,20.99-297.99,31.55,2.61-3.1,4.57-5.44,6.53-7.77Z"/>
  <path d="M1168.14,250.74c22.55,1.76,45.11,3.38,67.64,5.33,27.01,2.33,53.98,5.09,80.87,8.57,25.39,3.28,50.75,6.81,76.12,10.26.81.11,1.59.49,2.38.74,0,1-.12,2.01,0,2.99.41,3.45-1.08,4.3-4.36,3.8-16.44-2.48-32.89-4.91-49.35-7.17-34.44-4.73-68.98-8.64-103.61-11.73-19.55-1.74-39.12-3.3-58.68-4.92-.99-.08-1.99,0-2.99.02-2.89-2.41-5.87-4.73-8.02-7.89Z"/>
  <path d="M921.65,29.29c3.3.13,2.44,2.53,2.23,4.35-1.71,14.7-3.51,29.39-5.27,44.09-3.54,29.72-7.09,59.45-10.61,89.17-2.86,24.11-5.56,48.24-8.62,72.32-.59,4.63.66,5.8,5.11,5.64,9.48-.34,18.98-.22,28.47-.29.58,4.64-1.17,6.41-6.11,6.33-10.13-.17-20.28.24-30.41.6-3.68.13-4.4-1.12-3.97-4.72,4.99-41.42,9.77-82.87,14.67-124.31,3.49-29.55,7.13-59.08,10.57-88.63.32-2.71.9-4.51,3.94-4.55Z"/>
  <path d="M94.11,545.16c15.33,10.8,30.69,21.56,45.97,32.43,25.85,18.37,51.65,36.82,77.48,55.22q6.76,4.81,1.35,10.88c-.86.96-1.5,2.21-2.91,2.55.96-3.33-1.8-4.35-3.72-5.73-37.1-26.48-74.23-52.91-111.36-79.36-6.47-4.61-12.93-9.24-20.24-14.47,5.1-.58,9.27-1.06,13.44-1.53Z"/>
  <path class="cls-2" d="M1583.9,519.47c-.22,24.27-.44,48.54-.65,72.81-.16,19.29-.33,38.58-.44,57.87-.06,10.48-.02,20.96,0,31.44,0,5.43-2.49,9.05-7.67,10.78.22-1.6.63-3.2.64-4.8.26-32.57.41-65.14.71-97.71.2-21.59.77-43.18.74-64.78,0-5.46,2.07-6.59,6.69-5.63Z"/>
  <path class="cls-16" d="M942.37,218.64c-.63-4.88,1.25-6.8,6.4-6.67,12.32.31,24.65.35,36.96-.02,5.04-.15,6.71,1.59,6.92,6.4.29,6.97,1.3,13.9,1.77,20.87.22,3.34,1.09,4.98,4.98,4.95,9.48-.08,18.96.38,28.44.63.44,6.67.44,6.74-6.23,6.64-9.97-.16-19.94-.5-29.91-.61-2.68-.03-3.79-.82-3.99-3.66-.55-7.79-1.63-15.53-2.12-23.32-.25-4-1.65-5.39-5.77-5.3-12.48.26-24.96.09-37.45.09Z"/>
  <path class="cls-16" d="M1043.82,173.97c2.39,20.48,4.77,40.96,7.16,61.44.19,1.65.42,3.3.55,4.96.3,3.95,2.42,5.55,6.32,5.25,1.98-.15,3.99.07,5.98.13-3.27,6.58-9.4,6.19-15.32,6.3-3.22-.47-3.63-2.92-3.92-5.5-1.85-16.68-3.7-33.35-5.57-50.03-.5-4.46-.99-8.91-1.61-13.36-1.03-7.44-1.07-7.43,6.42-9.18Z"/>
  <path class="cls-1" d="M387.59,684.88c6.92,4.42,12.16,10.75,18.16,16.21,10.93,9.95,21.53,20.27,32.27,30.44,0,2.65,0,5.31,0,9.37-20.48-18.22-40.1-35.69-60.1-53.48,3.29-1.71,6.61-1.69,9.67-2.54Z"/>
  <path class="cls-11" d="M1488.8,675.43c0,17.58,0,35.15.02,52.73,0,1.98.13,3.97.21,5.95-2.07,1.92-4.15,3.84-6.27,5.79-1.52-1.19-.75-2.8-.75-4.14-.06-18.15-.04-36.3-.04-54.45q0-6.94,6.84-5.89Z"/>
  <path class="cls-13" d="M956.84,233.64q.77-7,8.56-7c11.83,0,11.58.03,12.79,11.5.51,4.89-.39,7.01-5.59,5.77-.54-.13-1.23.34-1.85.54-3.22,1.35-6.59.7-9.87.55-5.04-.22-6.33-2.09-5.53-7.19.23-1.49.49-2.97,1.5-4.17Z"/>
  <path class="cls-9" d="M956.84,233.64q-.2,10.14,10.48,10.43c1.14.03,2.28.25,3.42.38q.45,6.18-5.66,6.18c-3.63,0-7.28-.16-10.9.04-3.68.2-5.25-1.14-4.6-4.91.34-1.94.61-3.95.53-5.91-.19-4.82,1.69-7.16,6.73-6.22Z"/>
  <path class="cls-18" d="M859.31,245.87c5.57-.03,11.13-.06,16.7-.08-.21,2.67.02,5.59-3.68,6.2-5.39.18-10.39-.46-13.02-6.12Z"/>
  <path class="cls-4" d="M1711.11,637.66c.61-2.37,2.17-3.48,4.59-3.44-1.03,1.81-2.78,2.67-4.59,3.44Z"/>
  <path class="cls-10" d="M1756.79,605.22c.29-2.2,1.6-3.06,3.73-2.81-.89,1.41-2.25,2.19-3.73,2.81Z"/>
  <path class="cls-3" d="M1749.81,610.19c.27-2.21,1.59-3.02,3.7-2.79-.9,1.38-2.21,2.2-3.7,2.79Z"/>
  <path class="cls-3" d="M1742.81,615.19c.27-2.21,1.59-3.02,3.7-2.79-.9,1.38-2.21,2.2-3.7,2.79Z"/>
  <path class="cls-3" d="M1735.81,620.19c.27-2.21,1.55-3.08,3.71-2.8-.9,1.38-2.21,2.21-3.71,2.8Z"/>
  <path class="cls-6" d="M1728.85,625.14c.25-2.21,1.55-3.04,3.67-2.76-.89,1.36-2.23,2.13-3.67,2.76Z"/>
  <path class="cls-14" d="M1721.87,630.12c.19-2.28,1.54-3.01,3.65-2.74-.89,1.35-2.21,2.12-3.65,2.74Z"/>
  <path class="cls-12" d="M1187.23,542.37c-3.48-15.89.21-31.47,2.17-47.1,5.12-40.77,10.4-81.52,15.61-122.28,1.39-10.89,2.79-21.78,4.07-32.69.35-3.02,1.41-4.42,4.76-4.06,14.56,1.6,29.14,3.06,43.73,4.45,3.78.36,4.05,2.5,3.65,5.54-2.27,17.32-4.44,34.65-6.67,51.98-4.17,32.51-8.36,65.01-12.53,97.52-1.08,8.41-1.97,16.86-3.26,25.24-.58,3.74.54,5.15,4.27,5.39,5.81.37,11.61,1,17.38,1.8,3.59.5,5.11-.6,5.57-4.3,7.3-58.11,14.73-116.19,22.01-174.3.5-4.02,2.04-5.44,6.08-4.97,14.39,1.67,28.79,3.24,43.21,4.59,3.51.33,4.03,1.84,3.64,4.84-3.47,26.39-6.89,52.79-10.29,79.19-3.9,30.36-7.75,60.73-11.66,91.09-.68,5.28-1.22,10.6-2.36,15.78-5.3,24.02-22.92,35.95-47.98,33.02-17.85-2.08-35.74-3.79-53.62-5.66-12.98-4.24-22.99-11.77-27.79-25.08Z"/>
  <path class="cls-12" d="M754.09,527.27c-3.65-51.09-5.01-102.3-7.97-153.42-.43-7.46-.93-14.92-1.4-22.38-.17-5.14-.25-10.29-.55-15.42-.2-3.47.89-5.22,4.69-5.33,14.45-.42,28.9-.88,43.33-1.69,4.49-.25,4.44,2.48,4.57,5.28.49,10.28.77,20.58,1.3,30.86.64,12.44,1.45,24.87,2.19,37.3,2.28,8.22,1.78,16.72,2.27,25.09,1.03,17.5,1.69,35.03,2.83,52.52.32,9.11.22,18.22,1.1,27.33.38,3.94,1.7,5.61,5.73,5.58,4.83-.04,9.6-.59,14.39-.95,4.05-.3,5.05-2.37,4.69-5.91-1.48-14.52-1.14-29.15-2.7-43.66-.14-1.32.05-2.65-.06-3.98.39-9.38-.87-18.7-1.16-28.05-.05-1.62-.52-3.29.5-4.79-.9-21.92-1.79-43.85-2.72-65.77-.38-8.97-.74-17.95-1.34-26.91-.26-3.86,1.09-5.32,5-5.44,14.13-.43,28.26-1.05,42.38-1.79,3.87-.2,5.18,1.06,5.35,5.01,1.25,28.4,2.78,56.79,4.13,85.19,1.56,32.89,3.02,65.78,4.5,98.67.26,5.88-.6,11.65-2.57,17.17-5.64,15.84-17.78,23.35-33.79,24.5-17.41,1.25-34.89,1.82-52.35,2.08-22.38.34-33.96-8.14-41.46-29.34-.22-.61-.59-1.16-.88-1.74Z"/>
  <path class="cls-12" d="M1186.37,343.54c-.74,9.77-1.71,19.53-2.12,29.31-.18,4.32-1.93,5.35-5.85,5.1-9.45-.6-18.91-.92-28.37-1.35-4.2-.2-5.95,2.45-6.96,5.96-2.52,37.96-5.04,75.93-7.56,113.89-1.37,20.04-2.81,40.08-4.07,60.13-.26,4.17-2.85,4.32-5.84,4.15-11.44-.63-22.88-1.3-34.32-1.95-12.85-.73-13.02-.74-12.25-13.41,1.75-28.83,3.7-57.65,5.54-86.48.18-2.81.14-5.64.2-8.46-.65-5.08-.97-10.13,1.13-15,1.33-18.91,2.54-37.83,4.09-56.72.37-4.48-1.09-5.8-5.38-5.9-9.64-.24-19.28-.88-28.92-1.4-6.2-.33-6.27-.45-5.87-6.86.67-10.62,1.52-21.24,1.93-31.87.17-4.35,1.66-5.69,6.03-5.44,32.22,1.87,64.46,3.53,96.69,5.25,8.31.44,16.62.84,24.93,1.23,6.81.32,6.8.3,6.76,6.84,0,.99.14,1.99.21,2.98Z"/>
  <path class="cls-17" d="M1011.94,593.37c-28.6.07-57.21.17-85.81.17-5.29,0-10.55,1.51-15.85.19,15.91-14.59,31.84-29.16,47.72-43.78,3.1-2.85,5.52-1.16,7.81.94,9.2,8.4,18.33,16.88,27.49,25.33,6.21,5.73,12.43,11.44,18.64,17.16Z"/>
  <path class="cls-17" d="M804.04,480.46c-1.82-7.18-1.06-14.55-1.41-21.82-.89-18.72-2.85-37.4-2.4-56.18,8.69,5.59,15.2,13.71,23.24,20.05,1.41,1.11,2.38,2.82,4.37,3.11,1.89,10.88,2.24,21.84,1.99,32.85-5.22,6.63-12.11,11.49-18.36,17.01-2.17,1.92-3.71,5.23-7.44,4.98Z"/>
  <path class="cls-15" d="M1085.89,435.44c-.15,5.02,1,10.13-1.13,15-.14-.09-.3-.15-.42-.26-8.72-7.31-8.55-8.94,1.55-14.74Z"/>
  <path class="cls-12" d="M658.97,568.42c-4.38,1.16-5.58-1.06-6.02-5.19-4.15-38.86-8.47-77.71-12.73-116.56-2.08-19.01-4.24-38.02-6.09-57.05-.38-3.9-1.49-5.13-5.51-4.67-10.24,1.18-20.55,1.79-30.81,2.91-3.9.43-5.35-.86-5.72-4.71-1.07-11.26-2.29-22.5-3.75-33.72-.52-3.99.92-5.47,4.67-5.79,19.4-1.63,38.8-3.34,58.19-5.05,21.72-1.91,43.44-3.74,65.14-5.87,4.57-.45,6.24.88,6.64,5.42,1.03,11.58,2.4,23.14,3.83,34.68.46,3.7-1.88,3.66-4.25,3.88-10.11.91-20.21,2-30.33,2.61-4.41.26-5.7,1.87-5.22,6.18,3.96,35.04,7.77,70.09,11.63,105.14,2.45,22.32,4.94,44.64,7.32,66.96.68,6.4.4,6.69-6.11,7.29-13.59,1.24-27.19,2.36-40.89,3.54Z"/>
  <path class="cls-7" d="M1143.06,382.57c-.48-6.85.65-7.82,6.96-5.96-1.79,2.6-4.03,4.68-6.96,5.96Z"/>
  <path class="cls-12" d="M967.55,180.66c-5.66,0-11.34-.18-16.99.06-3.8.16-4.99-1.19-4.63-4.95,1.57-16.56,2.93-33.14,4.39-49.71,1.88-21.21,3.83-42.41,5.65-63.63.57-6.59.76-6.86,7.47-6.73,3.66.07,7.33.09,10.99-.11,2.96-.16,4.2,1.03,4.45,3.95,2.33,26.85,4.73,53.68,7.11,80.53,1.04,11.76,1.97,23.54,3.21,35.29.45,4.27-.93,5.64-5.17,5.39-5.48-.32-10.99-.08-16.49-.08Z"/>
  <path class="cls-5" d="M804.04,480.46c6.77-5.95,13.58-11.87,20.3-17.88,1.72-1.54,3.34-3.16,5.49-4.11,1.03,16.73,2.02,33.46,3.14,50.19.24,3.62-.95,5.05-4.74,5.05-6.47-.01-12.95.46-19.42.77-2.28.11-3.81-.29-3.85-3.15-.15-10.29-1.47-20.55-.92-30.86Z"/>
</svg>