<?xml version="1.0" encoding="UTF-8" standalone="no"?>
<svg
   xmlns:dc="http://purl.org/dc/elements/1.1/"
   xmlns:cc="http://creativecommons.org/ns#"
   xmlns:rdf="http://www.w3.org/1999/02/22-rdf-syntax-ns#"
   xmlns:svg="http://www.w3.org/2000/svg"
   xmlns="http://www.w3.org/2000/svg"
   id="svg2326"
   version="1.1"
   viewBox="0 0 210 297"
>
  <defs
     id="defs2320" />
  <metadata
     id="metadata2323">
    <rdf:RDF>
      <cc:Work
         rdf:about="">
        <dc:format>image/svg+xml</dc:format>
        <dc:type
           rdf:resource="http://purl.org/dc/dcmitype/StillImage" />
        <dc:title></dc:title>
      </cc:Work>
    </rdf:RDF>
  </metadata>
  <g
     id="layer1">
    <path
       d="M 37.362229,28.92919 H 173.77985 c 3.01498,0 5.44221,2.407384 5.44221,5.397778 V 252.79609 c -2.03783,4.83914 -4.15027,7.17282 -7.32698,9.70284 -5.40784,4.30691 -12.24857,6.75634 -18.95421,8.51235 -7.75461,2.03063 -15.97681,1.4491 -23.96081,2.17071 H 37.363559 c -3.014982,0 -5.442209,-2.40738 -5.442209,-5.39777 V 34.328897 c 0,-2.990368 2.4272,-5.397778 5.442209,-5.397778 z"
       fill="url(#n)"
       id="path46"
       style="opacity:1;fill:#bfbdc0;fill-opacity:1;stroke-width:0.265345" />
    <path
       id="path48"
       d="m 47.706693,49.728334 c -2.373209,0.52562 -4.139329,2.642875 -4.139329,5.195126 v 85.06271 c 0,2.95112 2.361274,5.32874 5.291812,5.32874 H 150.72555 c 9.70811,0 17.522,-7.86893 17.522,-17.64477 -0.16049,-2.20685 0.11895,-4.6246 0.13046,-6.73276 V 53.806807 c 0,-2.329128 -1.86175,-4.203871 -4.17474,-4.203871 H 49.570376 c -0.623028,-0.0143 -1.316067,0.0065 -1.863683,0.125398 z"
       style="opacity:1;fill:#616169;fill-opacity:1;stroke-width:0.26183" />
    <path
       d="M 42.610239,28.929427 V 41.101295 H 31.921485 v 2.018479 H 179.22205 v -2.018479 h -10.8536 V 28.929427 h -1.90789 V 41.101295 H 44.518133 V 28.929427 Z M 161.30583,227.27339 c -0.29232,-0.003 -0.58016,0.0748 -0.83199,0.22428 -0.76528,0.45403 -1.01984,1.44682 -0.56895,2.21743 l 10.61485,18.1374 c 0.45088,0.77062 1.43719,1.02713 2.20245,0.57309 0.76528,-0.45403 1.01986,-1.44683 0.56896,-2.21744 l -10.61537,-18.13739 c -0.28629,-0.48942 -0.80589,-0.79194 -1.36995,-0.79737 z m -7.11687,4.11396 c -0.29232,-0.003 -0.58015,0.0748 -0.83199,0.22428 -0.76508,0.4542 -1.01944,1.44696 -0.56845,2.21743 l 10.61538,18.1374 c 0.45105,0.77043 1.4368,1.02669 2.20193,0.57257 0.76509,-0.45421 1.01942,-1.44645 0.56844,-2.21692 l -10.61485,-18.13739 c -0.28642,-0.48923 -0.80651,-0.79205 -1.37046,-0.79737 z m -7.24814,4.11396 c -0.29231,-0.003 -0.58015,0.0748 -0.83199,0.22428 -0.76509,0.4542 -1.01942,1.44645 -0.56844,2.21692 l 10.61485,18.13739 c 0.45089,0.77061 1.43718,1.02765 2.20245,0.57361 0.76527,-0.45402 1.01985,-1.44683 0.56896,-2.21744 l -10.61537,-18.13739 c -0.28638,-0.48958 -0.80621,-0.79212 -1.37046,-0.79737 z m -7.37991,3.98115 c -0.29232,-0.003 -0.57964,0.0748 -0.83148,0.22428 -0.76507,0.4542 -1.01993,1.44645 -0.56895,2.21692 l 10.61537,18.13739 c 0.45088,0.77061 1.43667,1.02765 2.20193,0.57361 0.7654,-0.45422 1.02029,-1.44737 0.56896,-2.21795 l -10.61537,-18.1374 c -0.28642,-0.48922 -0.8065,-0.79153 -1.37046,-0.79685 z m -7.51169,3.71554 c -0.29232,-0.003 -0.57963,0.0748 -0.83147,0.22427 -0.76509,0.45419 -1.01995,1.44697 -0.56896,2.21744 l 10.61537,18.13739 c 0.45106,0.77043 1.43681,1.02671 2.20194,0.57258 0.76509,-0.4542 1.01993,-1.44697 0.56895,-2.21744 l -10.61537,-18.13739 c -0.28642,-0.48923 -0.80651,-0.79153 -1.37046,-0.79685 z m -7.24917,4.37958 c -0.29232,-0.003 -0.57963,0.0748 -0.83147,0.22427 -0.76527,0.45403 -1.02036,1.44683 -0.56948,2.21744 l 10.61538,18.13739 c 0.45088,0.77062 1.43666,1.02713 2.20193,0.57309 0.76527,-0.45402 1.01985,-1.44682 0.56896,-2.21743 l -10.61486,-18.1374 c -0.28629,-0.48942 -0.80641,-0.79193 -1.37046,-0.79736 z m -34.388597,15.57837 a 2.1313805,2.1216561 0 0 0 -2.131652,2.12184 2.1313805,2.1216561 0 0 0 2.131652,2.12183 h 19.254127 a 2.1313805,2.1216561 0 0 0 2.13113,-2.12183 2.1313805,2.1216561 0 0 0 -2.13113,-2.12184 z m 7.86102,5.20072 v 3.38016 h 2.171957 v -3.38016 z m 4.777487,0 v 3.38016 h 2.17196 v -3.38016 z m 4.67723,0 v 3.38016 h 2.17196 v -3.38016 z"
       style="opacity:1;fill:#cccccc;fill-opacity:1;stroke-width:0.26183"
       id="path1748" />
    <path
       d="m 92.098172,225.38668 c -0.344096,0.005 -0.682345,0.09 -0.988568,0.24805 l -12.771832,6.58926 c -1.099386,0.56709 -1.534231,1.92433 -0.970999,3.03134 0.56315,1.10705 1.91081,1.54436 3.010151,0.9772 l 12.772348,-6.58926 c 1.099386,-0.56708 1.533718,-1.92432 0.970483,-3.03134 -0.387786,-0.76215 -1.171233,-1.2372 -2.021583,-1.22525 z m 25.160738,0.094 c -0.34406,0.005 -0.68231,0.0896 -0.98857,0.24753 l -12.77183,6.58927 c -1.09938,0.56708 -1.53423,1.92432 -0.971,3.03134 0.56333,1.10686 1.91094,1.54444 3.01015,0.9772 l 12.77183,-6.58926 c 1.09939,-0.56708 1.53423,-1.92432 0.971,-3.03134 -0.38779,-0.76215 -1.17123,-1.23668 -2.02158,-1.22474 z"
       style="opacity:1;fill:#5e5e66;fill-opacity:1;stroke-width:0.26183"
       id="path1736" />
    <path
       d="m 159.53953,178.53011 c -4.97578,-0.009 -9.00613,4.0655 -8.97774,9.07594 -0.021,4.99891 3.99739,9.06249 8.96172,9.06249 4.96433,0 8.98275,-4.06358 8.96173,-9.06249 0.0283,-4.9978 -3.98248,-9.06703 -8.94571,-9.07594 z m -24.51168,11.14713 c -4.97579,-0.009 -9.00614,4.0655 -8.97774,9.07593 -0.043,5.01434 3.98142,9.10228 8.96121,9.10228 4.97977,0 9.00476,-4.08794 8.96172,-9.10228 0.0283,-4.99759 -3.98216,-9.06673 -8.94519,-9.07593 z"
       style="opacity:1;fill:#bb3971;fill-opacity:1;stroke-width:0.26183"
       id="path1732" />
    <path
       id="path1728"
       d="m 56.990444,177.25216 c -0.448863,0 -0.807228,0.36907 -0.807228,0.82106 v 10.8299 H 45.428358 c -0.448863,0 -0.807225,0.36084 -0.807225,0.81286 v 11.97118 c 0,0.45199 0.358336,0.81286 0.807225,0.81286 h 10.754858 v 10.82989 c 0,0.452 0.358338,0.81286 0.807228,0.81286 h 11.888232 c 0.44886,0 0.815377,-0.36084 0.815377,-0.81286 v -10.82989 h 10.754854 c 0.448866,0 0.807228,-0.36084 0.807228,-0.81286 v -11.97118 c 0,-0.452 -0.358336,-0.81286 -0.807228,-0.81286 H 69.694053 v -10.8299 c 0,-0.45199 -0.366517,-0.82106 -0.815377,-0.82106 z"
       style="opacity:1;fill:#374549;fill-opacity:1;stroke-width:0.26183" />
    <path
       d="m 48.43779,56.743749 v 0.684713 h 31.878674 v -0.684713 z m 99.79287,0.118857 v 0.445968 h 13.62501 V 56.862606 Z M 53.848313,84.126574 c -1.434299,-0.0017 -2.595775,1.172096 -2.588472,2.616377 0,1.43787 1.157983,2.60346 2.585887,2.60346 1.427905,0 2.585373,-1.16559 2.585373,-2.60346 0.0073,-1.441858 -1.150903,-2.614676 -2.582788,-2.616377 z"
       style="opacity:1;fill:#1a1a1a;fill-opacity:1;stroke-width:0.18624"
       id="path1786" />
    <path
       d="m 48.43779,54.904586 v 0.687295 h 31.878674 v -0.687295 z m 99.79287,0.118856 v 0.449585 h 13.62501 V 55.023442 Z M 53.847794,84.983885 c -0.962988,-0.0012 -1.743295,0.787307 -1.738395,1.757 0,0.965387 0.777632,1.748213 1.736329,1.748213 0.958699,0 1.735812,-0.782826 1.735812,-1.748213 0.0049,-0.968066 -0.772375,-1.7559 -1.733746,-1.757 z"
       style="opacity:1;fill:#c80000;fill-opacity:1;stroke-width:0.125042"
       id="path1726" />
    <path
       id="path1724"
       d="m 69.166712,60.993721 h 73.759738 c 1.32084,2.7e-5 2.39159,1.078246 2.39161,2.408299 v 67.90597 c -2e-5,1.33006 -1.07077,2.40828 -2.39161,2.4083 H 69.166712 c -1.320838,-2e-5 -2.39158,-1.07824 -2.391609,-2.4083 V 63.40202 c 2.9e-5,-1.330053 1.070771,-2.408272 2.391609,-2.408299 z"
       style="opacity:1;fill:#bfcf04;fill-opacity:1;stroke-width:0.26183" />
    <path
       d="m 87.702059,54.883398 c -0.283128,0.01098 -0.562369,0.107799 -0.769461,0.299723 -0.293283,0.256709 -0.403315,0.653915 -0.398426,1.02681 -2.64e-4,0.181441 0.03493,0.362974 0.104902,0.531234 0.143944,0.380327 0.51352,0.66404 0.926042,0.715719 0.457682,0.06873 0.970971,-0.108556 1.216464,-0.504878 0.239713,-0.38135 0.267028,-0.869167 0.125574,-1.288812 -0.108595,-0.324914 -0.371485,-0.597768 -0.705384,-0.708999 -0.158515,-0.05331 -0.329832,-0.0774 -0.499711,-0.0708 z m 42.367441,0 c -0.28312,0.01098 -0.56237,0.107799 -0.76946,0.299723 -0.29328,0.256709 -0.40332,0.653915 -0.39843,1.02681 -2.7e-4,0.181441 0.0355,0.362974 0.10542,0.531234 0.14395,0.380327 0.51301,0.66404 0.92553,0.715719 0.45768,0.06873 0.97096,-0.108556 1.21646,-0.504878 0.23971,-0.38135 0.26703,-0.869167 0.12557,-1.288812 -0.1086,-0.324914 -0.37148,-0.597768 -0.70538,-0.708999 -0.15851,-0.05331 -0.32983,-0.0774 -0.49971,-0.0708 z m 6.1836,0 c -0.28313,0.01098 -0.56186,0.107799 -0.76895,0.299723 -0.29329,0.256709 -0.40332,0.653912 -0.39842,1.02681 -2.7e-4,0.181441 0.0349,0.362974 0.1049,0.531234 0.14394,0.380327 0.51301,0.664038 0.92553,0.715719 0.45768,0.06873 0.97149,-0.108554 1.21698,-0.504878 0.23971,-0.38135 0.2665,-0.869167 0.12506,-1.288812 -0.10861,-0.324914 -0.3715,-0.597768 -0.70539,-0.708999 -0.15852,-0.05331 -0.32984,-0.0774 -0.49971,-0.0708 z m -18.31206,5.16e-4 c -0.15684,-0.0024 -0.31445,0.02087 -0.46199,0.0708 -0.26218,0.08196 -0.4666,0.324027 -0.47232,0.595829 -0.0156,0.223475 0.11858,0.438443 0.31936,0.54312 0.28111,0.14962 0.60638,0.182232 0.90899,0.273368 0.16302,0.0431 0.35018,0.133098 0.38344,0.31161 0.0423,0.185579 -0.0906,0.370965 -0.26872,0.431499 -0.26802,0.09927 -0.58595,0.08573 -0.83819,-0.05013 -0.17668,-0.0879 -0.26644,-0.277543 -0.28319,-0.462503 -0.10692,0.0091 -0.21347,0.01781 -0.32039,0.02687 0.002,0.07067 0.0114,0.141444 0.03,0.209807 0.0713,0.284221 0.31651,0.508199 0.60513,0.580327 0.28759,0.07148 0.60187,0.08524 0.8847,-0.01292 0.26997,-0.0892 0.49313,-0.323382 0.52142,-0.605647 0.0348,-0.246499 -0.0948,-0.501663 -0.3173,-0.624253 -0.27195,-0.157639 -0.59604,-0.184084 -0.89452,-0.270266 -0.14891,-0.0445 -0.33933,-0.09037 -0.38964,-0.255284 -0.0628,-0.181961 0.0754,-0.375353 0.2558,-0.426331 0.1957,-0.05736 0.41109,-0.05981 0.60772,-0.0052 0.20039,0.05354 0.325,0.246354 0.33848,0.440801 l 0.22634,-0.01602 c 0.0474,-0.0074 0.12857,0.01293 0.0961,-0.0615 -0.0215,-0.269539 -0.21059,-0.516223 -0.47232,-0.608232 -0.14576,-0.05459 -0.30204,-0.08324 -0.45889,-0.08578 z m 15.76751,0 c -0.15685,-0.0024 -0.31392,0.02087 -0.46147,0.0708 -0.26217,0.08196 -0.46712,0.324027 -0.47284,0.595829 -0.0156,0.223475 0.11857,0.438443 0.31936,0.54312 0.2811,0.149622 0.60691,0.182232 0.90951,0.273368 0.16303,0.0431 0.35019,0.133098 0.38344,0.31161 0.0423,0.185579 -0.0911,0.370965 -0.26924,0.431499 -0.26801,0.09927 -0.58595,0.08573 -0.83819,-0.05013 -0.17668,-0.0879 -0.26644,-0.277543 -0.28319,-0.462503 -0.10691,0.0091 -0.21348,0.01781 -0.32039,0.02687 0.002,0.07067 0.0114,0.141444 0.03,0.209807 0.0713,0.284221 0.31651,0.508196 0.60514,0.580327 0.28757,0.07148 0.60185,0.08524 0.8847,-0.01292 0.26996,-0.0892 0.49312,-0.323382 0.52141,-0.605647 0.0348,-0.246499 -0.0948,-0.501663 -0.31729,-0.624253 -0.27195,-0.157639 -0.59553,-0.184084 -0.89401,-0.270266 -0.1489,-0.0445 -0.33984,-0.09037 -0.39015,-0.255284 -0.0628,-0.181961 0.076,-0.375353 0.25631,-0.426331 0.19571,-0.05736 0.4116,-0.05981 0.60823,-0.0052 0.20039,0.05354 0.32445,0.246354 0.33797,0.440801 l 0.22582,-0.01602 c 0.0474,-0.0074 0.12857,0.01293 0.0961,-0.0615 -0.0215,-0.269539 -0.21059,-0.516223 -0.47232,-0.608232 -0.14576,-0.05459 -0.30204,-0.08324 -0.45889,-0.08578 z m -49.665184,0.04341 v 2.500622 h 0.754478 c 0.310013,0.0038 0.643007,-1.08e-4 0.907955,-0.177768 0.306345,-0.215559 0.436454,-0.593887 0.45837,-0.948262 0.02326,-0.378552 -0.04318,-0.794165 -0.317294,-1.082106 -0.178385,-0.196762 -0.450382,-0.281371 -0.71365,-0.286803 -0.363167,-0.01011 -0.726546,-0.0035 -1.089859,-0.0057 z m 5.191932,0 v 0.295587 h 0.846461 v 2.205035 h 0.340032 v -2.205035 h 0.850077 v -0.295587 z m 3.309358,0 v 2.500622 h 0.328147 v -2.128554 l 0.74259,2.128554 h 0.306441 l 0.747241,-2.092896 v 2.092896 h 0.327629 V 54.927324 H 94.53885 l -0.614947,1.739945 c -0.06193,0.176236 -0.107731,0.309536 -0.136943,0.400492 -0.02572,-0.08186 -0.06639,-0.205137 -0.122473,-0.370004 l -0.608232,-1.770433 z m 3.708818,0 -0.98702,2.500622 h 0.36122 l 0.28267,-0.757576 h 1.073835 l 0.299723,0.757576 h 0.387575 l -1.051616,-2.500622 z m 1.234033,0 v 0.295587 h 0.84646 v 2.205035 h 0.340032 v -2.205035 h 0.850077 v -0.295587 z m 2.392103,0 v 2.500622 h 0.34003 v -1.110528 c 0.14703,2.57e-4 0.2943,-2.67e-4 0.44132,5.16e-4 0.17732,-0.0132 0.34252,0.08157 0.44648,0.216525 0.22554,0.282673 0.40851,0.59423 0.60927,0.893487 h 0.42736 l -0.3545,-0.54002 c -0.15112,-0.231555 -0.30997,-0.484592 -0.57929,-0.597895 0.17244,-0.02347 0.34785,-0.07115 0.48627,-0.178284 0.28953,-0.219797 0.30972,-0.667705 0.0884,-0.939477 -0.1422,-0.190405 -0.39741,-0.232516 -0.62322,-0.241848 -0.42713,-0.0071 -0.85487,-0.0013 -1.28209,-0.0031 z m 2.64687,0 v 2.500622 h 0.34003 v -2.500622 z m 0.79426,0 0.87644,1.197343 -0.99426,1.303279 h 0.40876 l 0.64492,-0.871783 c 0.0245,-0.03411 0.0652,-0.09662 0.12248,-0.187585 0.0386,0.06026 0.0759,0.116266 0.11214,0.167431 l 0.64698,0.891937 h 0.42013 l -0.97255,-1.321885 0.90331,-1.178737 h -0.37052 l -0.51677,0.663525 c -0.0783,0.09892 -0.14583,0.193773 -0.20309,0.284736 -0.0409,-0.07163 -0.11023,-0.173926 -0.20722,-0.306959 l -0.46612,-0.641302 z m 3.30368,0 0.68213,2.500622 h 0.34675 l 0.54518,-1.905309 c 0.0234,-0.08073 0.0486,-0.178168 0.0754,-0.293008 0.008,0.03638 0.0351,0.133821 0.0806,0.293008 l 0.54158,1.905309 h 0.32762 l 0.70435,-2.500622 h -0.34158 l -0.40308,1.607135 c -0.0526,0.204663 -0.0954,0.386112 -0.12815,0.544152 -0.0409,-0.276296 -0.10716,-0.571915 -0.19947,-0.885732 l -0.36846,-1.265555 h -0.41031 l -0.48834,1.688785 c -0.0117,0.04093 -0.0508,0.195305 -0.11627,0.462502 -0.0304,-0.169412 -0.0665,-0.340426 -0.10852,-0.512111 l -0.39068,-1.639176 z m 3.67729,0 v 2.500622 h 0.34003 v -2.500622 z m 0.74518,0 v 0.295587 h 0.84646 v 2.205035 h 0.34003 v -2.205035 h 0.85008 v -0.295587 z m 2.39778,0 v 2.500622 h 0.34003 v -1.17874 h 1.33532 v 1.17874 h 0.34003 v -2.500622 h -0.34003 v 1.026808 h -1.33532 v -1.026808 z m 5.78363,0 v 0.295587 h 0.84646 v 2.205035 h 0.34003 v -2.205035 h 0.8506 v -0.295587 z m 2.39417,0 v 2.500622 h 1.91771 v -0.29559 h -1.57768 v -0.850593 h 1.42213 V 55.98824 h -1.42213 v -0.765845 h 1.51774 v -0.295071 z m 2.39624,0 v 2.500622 h 0.34003 v -1.110528 c 0.14703,2.57e-4 0.29378,-2.67e-4 0.4408,5.16e-4 0.17733,-0.0132 0.34252,0.08157 0.44648,0.216525 0.22554,0.282673 0.40902,0.59423 0.60978,0.893487 h 0.42737 l -0.3545,-0.54002 c -0.15112,-0.231555 -0.30998,-0.484592 -0.5793,-0.597895 0.17244,-0.02347 0.34837,-0.07116 0.4868,-0.178284 0.28952,-0.219797 0.30873,-0.667705 0.0873,-0.939477 -0.1422,-0.190405 -0.39689,-0.232516 -0.6227,-0.241848 -0.42713,-0.0071 -0.85487,-0.0013 -1.28209,-0.0031 z m 2.5957,0 v 2.500622 h 1.91771 v -0.29559 h -1.57768 v -0.850593 h 1.42162 V 55.98824 h -1.42162 v -0.765845 h 1.51826 v -0.295071 z m 11.36985,0 v 1.206643 c 0.002,0.319119 -0.02,0.657812 0.14004,0.947745 0.143,0.250624 0.44383,0.366197 0.72554,0.382924 0.31109,0.02434 0.65861,-0.0154 0.89142,-0.238228 0.2095,-0.186751 0.25103,-0.478764 0.262,-0.740524 0.005,-0.519478 8.7e-4,-1.039045 0.002,-1.55856 h -0.34004 v 1.064017 c -0.007,0.283315 0.0275,0.573473 -0.062,0.84801 -0.0446,0.155425 -0.18672,0.26688 -0.3452,0.301273 -0.24127,0.05218 -0.52345,0.05603 -0.72812,-0.09818 -0.1741,-0.130167 -0.195,-0.358801 -0.2036,-0.55604 -0.005,-0.519629 -8.6e-4,-1.039405 -0.002,-1.559076 z m 2.58589,0 v 2.500622 h 0.32608 v -1.964737 l 1.34927,1.964737 h 0.34882 v -2.500622 h -0.32608 v 1.963187 l -1.34927,-1.963187 z m 2.59726,0 v 2.500622 h 0.75396 c 0.31001,0.0038 0.643,-1.08e-4 0.90795,-0.177768 0.30635,-0.215559 0.43593,-0.593887 0.45785,-0.948262 0.0233,-0.378552 -0.0421,-0.794165 -0.31626,-1.082106 -0.17839,-0.196762 -0.45038,-0.281371 -0.71365,-0.286803 -0.36317,-0.01011 -0.72654,-0.0035 -1.08985,-0.0057 z m -55.460699,0.241845 c 0.0398,-0.0026 0.07962,-0.0025 0.119372,0 0.106005,0.0066 0.210317,0.03095 0.30644,0.07545 0.271521,0.117012 0.438655,0.388009 0.485243,0.665594 0.05299,0.332594 0.0286,0.708371 -0.195336,0.980818 -0.266613,0.333595 -0.805882,0.39071 -1.15497,0.150379 -0.273791,-0.181179 -0.389729,-0.515128 -0.382405,-0.826307 0.0011,-0.219514 0.02563,-0.447935 0.133842,-0.644404 0.137991,-0.241852 0.409202,-0.383169 0.687814,-0.401526 z m 42.367439,0 c 0.0398,-0.0026 0.0796,-0.0025 0.11937,0 0.106,0.0066 0.21031,0.03095 0.30644,0.07545 0.27152,0.117012 0.43866,0.388009 0.48524,0.665594 0.053,0.332594 0.0286,0.708371 -0.19533,0.980818 -0.26661,0.333592 -0.80588,0.39071 -1.15497,0.150379 -0.27379,-0.181179 -0.38973,-0.515128 -0.3824,-0.826307 0.001,-0.219514 0.0257,-0.447935 0.13383,-0.644404 0.138,-0.241852 0.40921,-0.383169 0.68782,-0.401526 z m 6.1836,0 c 0.0398,-0.0026 0.0801,-0.0025 0.11989,0 0.10601,0.0066 0.21032,0.03095 0.30644,0.07545 0.27152,0.117012 0.43815,0.388009 0.48473,0.665594 0.053,0.332594 0.0291,0.708371 -0.19482,0.980818 -0.26662,0.333592 -0.80692,0.39071 -1.15601,0.150379 -0.2738,-0.181182 -0.38921,-0.515125 -0.38188,-0.826307 10e-4,-0.219514 0.0261,-0.447935 0.13435,-0.644404 0.138,-0.241852 0.40869,-0.383169 0.6873,-0.401526 z m -39.829092,0.02119 c 0.03973,0.135303 0.100105,0.307964 0.181901,0.518313 l 0.268718,0.691947 h -0.871265 l 0.282152,-0.733288 c 0.05959,-0.158046 0.105775,-0.316656 0.138494,-0.476972 z m 4.614192,0.01292 c 0.10594,0.0024 0.21052,0.01436 0.31006,0.05478 0.20428,0.08071 0.28677,0.335883 0.19223,0.523481 -0.0743,0.174421 -0.27918,0.239271 -0.45837,0.244946 -0.28869,0.0093 -0.57826,0.0024 -0.86713,0.0047 v -0.827339 h 0.5054 c 0.10486,0.0038 0.21186,-0.003 0.31781,-5.18e-4 z m 24.13909,0 c 0.10595,0.0024 0.21052,0.01436 0.31006,0.05478 0.2043,0.08071 0.28626,0.335883 0.19172,0.523481 -0.0743,0.174421 -0.27866,0.239271 -0.45785,0.244946 -0.28869,0.0093 -0.57827,0.0024 -0.86713,0.0047 v -0.827339 h 0.50539 c 0.10487,0.0038 0.21187,-0.003 0.31781,-5.18e-4 z m -40.234752,0.01861 c 0.127789,0.0016 0.254493,0.01 0.379304,0.03979 0.274535,0.08602 0.438365,0.361863 0.472324,0.628386 0.03844,0.318426 0.03008,0.66499 -0.141594,0.948777 -0.103463,0.182941 -0.318233,0.271486 -0.523997,0.285255 -0.249484,0.01662 -0.499383,0.0051 -0.749311,0.0083 v -1.909961 h 0.179319 c 0.127254,0.003 0.256164,-0.0019 0.383955,-5.16e-4 z m 59.123522,0 c 0.12779,0.0016 0.255,0.01 0.37982,0.03979 0.27453,0.08602 0.43785,0.361863 0.47181,0.628386 0.0384,0.318426 0.0306,0.66499 -0.14108,0.948777 -0.10347,0.182941 -0.31824,0.271486 -0.524,0.285255 -0.24949,0.01662 -0.49989,0.0051 -0.74982,0.0083 v -1.909961 h 0.17983 c 0.12725,0.003 0.25565,-0.0019 0.38344,-5.16e-4 z M 47.546887,92.846454 v 2.274279 h 0.536403 c 0.268325,-0.0062 0.546196,0.027 0.802535,-0.07131 0.267411,-0.09481 0.410011,-0.401341 0.373104,-0.672309 -0.02319,-0.221588 -0.198919,-0.405124 -0.410313,-0.462505 0.0023,-0.02401 0.109186,-0.06411 0.141595,-0.108521 0.187126,-0.168415 0.215074,-0.471681 0.0739,-0.677476 -0.114909,-0.198626 -0.353155,-0.272571 -0.569992,-0.27957 -0.315701,-0.0054 -0.631457,-0.0012 -0.94723,-0.0026 z m 2.758488,0 -0.873847,2.274279 h 0.319876 l 0.249597,-0.688845 h 0.951365 l 0.265099,0.688845 h 0.342614 l -0.930693,-2.274279 z m 1.091925,0 v 0.268201 h 0.749308 v 2.006078 h 0.301273 v -2.006078 h 0.752409 v -0.268201 z m 1.942515,0 v 0.268201 h 0.749308 v 2.006078 h 0.300757 v -2.006078 h 0.752409 v -0.268201 z m 2.119252,0 v 2.274279 h 1.697053 v -0.268716 h -1.396296 v -0.774112 h 1.258321 v -0.26665 h -1.258321 v -0.6966 h 1.343586 v -0.268201 z m 2.120799,0 v 2.274279 c 0.100322,6e-6 0.200438,-2e-6 0.300757,0 v -1.009755 c 0.130136,2.11e-4 0.260028,-8.34e-4 0.390158,0 0.15695,-0.01199 0.303305,0.07412 0.395324,0.196887 0.199633,0.257124 0.361815,0.54066 0.539501,0.812868 h 0.378272 c -0.104658,-0.163758 -0.209015,-0.327681 -0.313674,-0.491442 -0.133757,-0.210627 -0.274769,-0.440571 -0.513148,-0.543634 0.152624,-0.02137 0.308459,-0.0643 0.430982,-0.161748 0.256267,-0.199932 0.273431,-0.607515 0.07751,-0.854728 -0.125865,-0.173191 -0.35152,-0.211125 -0.551389,-0.219626 -0.378063,-0.0064 -0.756158,-0.0015 -1.134298,-0.0031 z m 1.999361,0 0.876432,1.311032 v 0.963247 h 0.301276 v -0.963247 l 0.907436,-1.311032 h -0.350364 l -0.440801,0.668692 c -0.09722,0.148934 -0.179787,0.282589 -0.248047,0.401527 -0.07136,-0.128246 -0.148769,-0.256225 -0.23151,-0.384471 l -0.448035,-0.685748 z m -9.118822,0.238745 c 0.03517,0.123078 0.08883,0.280468 0.161232,0.471807 l 0.237193,0.629936 h -0.771011 l 0.250113,-0.667144 c 0.05274,-0.143762 0.09351,-0.288769 0.122473,-0.434599 z m 8.148857,0.01189 c 0.09377,0.0022 0.186301,0.01286 0.274402,0.04961 0.180827,0.07342 0.253685,0.305813 0.170016,0.476456 -0.06579,0.158655 -0.247579,0.217527 -0.406178,0.222724 -0.255532,0.0085 -0.511193,0.0021 -0.766879,0.0041 0,-0.250806 3e-6,-0.501602 0,-0.752409 h 0.447003 c 0.09282,0.0034 0.187862,-0.0028 0.281636,-5.16e-4 z m -10.266558,0.01705 c 0.102793,0.0014 0.205076,0.0085 0.305408,0.03307 0.171477,0.04768 0.241038,0.253812 0.198438,0.413411 -0.03113,0.144439 -0.179277,0.225761 -0.31781,0.233061 -0.226605,0.0154 -0.454075,0.0055 -0.681095,0.0083 v -0.687297 h 0.187068 c 0.102354,0.0024 0.2052,-0.0019 0.307991,-5.16e-4 z m -0.495059,0.956013 h 0.281119 c 0.206793,0.0056 0.421558,-0.02235 0.618567,0.05478 0.182735,0.07667 0.247354,0.309348 0.179835,0.485243 -0.05096,0.152675 -0.21285,0.23051 -0.364837,0.23771 -0.238045,0.0083 -0.476493,0.0023 -0.714684,0.0041 z"
       style="font-style:normal;font-variant:normal;font-weight:normal;font-stretch:normal;font-size:12.9881px;line-height:1.25;font-family:Arial;-inkscape-font-specification:Arial;letter-spacing:0px;word-spacing:0px;fill:#ffffff;stroke-width:0.0885235"
       id="path872" />
    <path
       d="m 167.06931,200.63884 c -0.35515,0.004 -0.78845,0.20465 -1.25729,0.43977 -0.19558,0.0981 -0.39582,0.20837 -0.56999,0.31987 -0.59839,0.38308 -0.99582,0.7503 -0.70797,1.31362 0.47221,0.92413 1.23042,2.38693 1.23042,2.38693 l 0.65939,-0.34003 -0.44235,-0.85834 0.0522,-0.0269 1.77922,-0.91725 0.0522,-0.0269 0.44235,0.85834 0.6594,-0.34003 c 0,0 -0.7515,-1.46576 -1.23042,-2.38642 -0.16152,-0.3105 -0.39092,-0.42599 -0.66714,-0.42271 z m -0.20051,0.89814 c 0.13559,-1.2e-4 0.23975,0.0541 0.30644,0.18345 l 0.28164,0.54519 -1.77922,0.91725 -0.28164,-0.54518 c -0.13338,-0.25868 0.0658,-0.46476 0.43047,-0.67748 0.0931,-0.0513 0.18574,-0.10015 0.27182,-0.14521 0.0867,-0.044 0.1796,-0.0908 0.27543,-0.13695 0.19244,-0.0869 0.35947,-0.14096 0.49506,-0.14107 z m -24.00628,10.74456 c -0.27623,0.003 -0.54877,0.11838 -0.79014,0.24856 -0.61763,0.33388 -1.22378,0.6889 -1.83606,1.0325 0.52105,0.91938 1.04216,1.83859 1.56321,2.75797 0.49366,-0.28073 0.98886,-0.558 1.48105,-0.84129 0.3547,-0.21998 0.756,-0.39356 1.02371,-0.72606 0.2518,-0.30626 0.31767,-0.80986 0.0274,-1.11362 -0.25355,-0.2583 -0.65675,-0.24163 -0.97669,-0.13695 0.13637,-0.1504 0.23537,-0.34063 0.25167,-0.54518 0.0351,-0.29386 -0.18234,-0.57642 -0.46768,-0.63872 -0.0919,-0.0274 -0.18439,-0.0383 -0.27646,-0.0372 z m -0.24237,0.66353 c 0.0971,0.0123 0.18526,0.0591 0.23461,0.15502 0.1139,0.19005 -0.0315,0.40447 -0.1881,0.5147 -0.34276,0.22773 -0.7098,0.41666 -1.06557,0.62322 -0.12048,-0.21259 -0.24072,-0.42509 -0.36121,-0.63769 0.36313,-0.20237 0.71962,-0.41862 1.09192,-0.60358 0.085,-0.0419 0.19125,-0.064 0.28835,-0.0517 z m 0.67386,1.05264 c 0.15582,-0.003 0.31253,0.0657 0.37156,0.22118 0.0987,0.20861 -0.0562,0.4288 -0.22686,0.54157 -0.37552,0.24268 -0.7723,0.45044 -1.15911,0.67438 -0.13931,-0.24584 -0.27874,-0.4916 -0.41806,-0.73743 0.0732,-0.0415 0.14643,-0.083 0.21963,-0.12454 0.34942,-0.19071 0.68478,-0.41438 1.06092,-0.54932 0.0481,-0.0161 0.1,-0.0249 0.15192,-0.0258 z m -45.809601,18.00511 -2.899566,1.37821 0.138493,0.29145 1.205095,-0.57257 1.03663,2.18074 0.48369,-0.22996 -1.036114,-2.18074 1.210262,-0.57516 z m 23.433191,0.24649 -3.14864,1.51464 0.15606,0.32556 1.30896,-0.62994 1.16944,2.43035 0.52555,-0.25322 -1.16892,-2.42982 1.31413,-0.63252 z m -27.282053,1.71101 c -0.344403,0.0151 -0.688348,0.13764 -0.992188,0.293 -0.452162,0.23708 -0.890643,0.5798 -1.084688,1.06712 -0.196612,0.47989 -0.01942,1.05217 0.358119,1.39113 0.343373,0.32735 0.856413,0.42008 1.308962,0.31213 0.467648,-0.11298 0.922412,-0.31382 1.29553,-0.62115 0.345625,-0.28338 0.589735,-0.72262 0.541051,-1.17926 -0.174468,0.0491 -0.349017,0.0982 -0.523483,0.14728 0.01262,0.0931 0.0129,0.18831 -0.0026,0.28112 -0.0704,0.41225 -0.428371,0.70202 -0.789617,0.86661 -0.333415,0.14851 -0.728652,0.23936 -1.082104,0.10697 -0.359672,-0.15039 -0.59591,-0.52074 -0.659392,-0.89555 -0.05397,-0.27883 0.0369,-0.56998 0.223242,-0.78083 0.258802,-0.29525 0.622774,-0.48871 0.998906,-0.58911 0.293171,-0.0791 0.621707,-0.0172 0.852146,0.185 0.139337,-0.0956 0.278728,-0.19118 0.41806,-0.2868 -0.004,-0.0918 -0.220001,-0.17462 -0.326078,-0.22221 -0.127397,-0.0448 -0.257633,-0.0684 -0.388607,-0.0749 -0.04911,-0.002 -0.09808,-0.003 -0.147277,-5.2e-4 z m 23.378933,0.35812 c -0.29325,-0.008 -0.59783,0.11403 -0.8692,0.23151 -0.33209,0.15501 -0.66258,0.31309 -0.9927,0.47232 -0.33015,0.15918 -0.65994,0.31949 -0.99064,0.47749 l 1.3255,2.75487 0.52555,-0.25321 -0.58859,-1.22318 c 0.22744,-0.10908 0.45429,-0.21937 0.68213,-0.32763 0.2489,-0.13461 0.54536,-0.17191 0.80512,-0.0935 0.48883,0.14023 0.94603,0.35024 1.41593,0.53124 l 0.66094,-0.31781 c -0.27514,-0.1092 -0.55013,-0.21896 -0.82527,-0.32815 -0.37758,-0.15612 -0.78646,-0.30724 -1.22215,-0.23099 0.3172,-0.19549 0.65,-0.4373 0.77773,-0.78549 0.13918,-0.34762 -0.068,-0.73611 -0.41651,-0.8511 -0.0935,-0.0364 -0.19009,-0.0537 -0.28784,-0.0563 z m -0.25115,0.44028 c 0.23489,-0.003 0.4493,0.17391 0.42944,0.40463 -0.0152,0.29729 -0.30896,0.50173 -0.56379,0.63923 -0.4469,0.23026 -0.90483,0.43908 -1.35651,0.65991 l -0.43822,-0.91157 0.87747,-0.42219 c 0.0846,-0.0381 0.16941,-0.0805 0.25425,-0.12248 0.25466,-0.12578 0.51368,-0.24882 0.79736,-0.24753 z m -26.356009,0.6072 -2.645318,1.25677 1.174607,2.47272 2.730064,-1.2976 -0.138491,-0.29145 -2.245858,1.06712 -0.399975,-0.84181 2.023647,-0.9617 -0.137459,-0.28991 -2.024166,0.9617 -0.359667,-0.75758 2.161109,-1.02681 z m 21.694799,1.12448 -0.56586,0.27233 -0.2005,3.4892 0.55862,-0.2682 0.0346,-1.0449 1.66088,-0.79892 0.86507,0.61133 0.59893,-0.28784 z m -0.15606,0.4315 c 0.13316,0.11954 0.31909,0.26469 0.55707,0.43563 l 0.78186,0.56379 -1.3472,0.64802 0.0475,-1.01802 c 0.008,-0.21849 -0.005,-0.42842 -0.0393,-0.62942 z m -1.62936,0.42788 -3.14916,1.51463 0.15658,0.32557 1.30896,-0.62994 1.16892,2.42983 0.52607,-0.2527 -1.16944,-2.42983 1.31465,-0.63252 z m -24.945766,0.40876 -0.48369,0.22996 1.174605,2.47271 2.286167,-1.08623 -0.13901,-0.29197 -1.801442,0.85627 z m -1.222663,0.58084 -2.645317,1.25677 1.175123,2.47272 2.730066,-1.29708 -0.138494,-0.29197 -2.246373,1.06712 -0.399976,-0.8413 2.024166,-0.96169 -0.137978,-0.29043 -2.023647,0.9617 -0.360185,-0.75706 2.161109,-1.02681 z m 22.038449,1.15962 c -0.14263,0.002 -0.28785,0.0242 -0.42478,0.0589 -0.19336,0.0506 -0.38503,0.11658 -0.56948,0.19895 -0.3074,0.1373 -0.59467,0.31938 -0.83664,0.54881 -0.26303,0.24552 -0.43791,0.63718 -0.26975,0.94774 0.13506,0.26477 0.47954,0.33973 0.77877,0.31006 0.60791,-0.0592 1.18226,-0.3221 1.78386,-0.42478 0.21603,-0.0391 0.49511,-0.006 0.56586,0.21394 0.0769,0.24333 -0.12741,0.48296 -0.32504,0.63511 -0.36979,0.27614 -0.82023,0.47835 -1.28106,0.50591 -0.26488,0.0258 -0.51557,-0.0969 -0.64751,-0.30179 -0.16048,0.0895 -0.32114,0.17917 -0.48162,0.26872 0.0522,0.0989 0.1252,0.18735 0.21497,0.25734 0.34113,0.267 0.84626,0.2469 1.27176,0.11783 0.53835,-0.16999 1.082,-0.4198 1.46968,-0.83509 0.25338,-0.26523 0.41606,-0.66509 0.2434,-0.98134 -0.14603,-0.28765 -0.51746,-0.36888 -0.84233,-0.3359 -0.5899,0.0589 -1.1466,0.31303 -1.72858,0.42427 -0.18784,0.0441 -0.4336,0.0474 -0.52968,-0.12816 -0.11266,-0.20327 0.0561,-0.44529 0.23203,-0.58446 0.28288,-0.21505 0.61463,-0.378 0.96014,-0.4625 0.27795,-0.0705 0.59295,0.007 0.73433,0.23874 0.13203,-0.0722 0.2638,-0.14429 0.39584,-0.21652 0.18204,-0.0485 -0.003,-0.18515 -0.0708,-0.25528 -0.17488,-0.14973 -0.40565,-0.20351 -0.64337,-0.20051 z m -25.816514,0.80667 v 5.2e-4 c -0.473696,0.003 -0.926327,0.1923 -1.330666,0.42581 -0.297188,0.18665 -0.610433,0.42145 -0.707451,0.7767 -0.07457,0.23445 0.04361,0.51242 0.275953,0.60358 0.321595,0.1264 0.67329,0.0375 0.99477,-0.0424 0.398848,-0.0967 0.785595,-0.25046 1.19476,-0.2992 0.172146,-0.0226 0.399656,0.0328 0.438732,0.22944 0.0374,0.24098 -0.165904,0.42936 -0.339513,0.56172 -0.338336,0.23883 -0.735756,0.41486 -1.152904,0.44184 -0.227062,0.024 -0.462782,-0.0737 -0.588076,-0.2682 -0.147955,0.0813 -0.295949,0.16206 -0.443902,0.24339 0.05457,0.10495 0.136078,0.19611 0.234612,0.26148 0.339539,0.22138 0.776888,0.17283 1.146182,0.0615 0.515822,-0.16836 1.038382,-0.40676 1.396815,-0.82838 0.188833,-0.2216 0.31791,-0.55962 0.154514,-0.82992 -0.147875,-0.24851 -0.465711,-0.29817 -0.731223,-0.27595 -0.567952,0.0529 -1.09405,0.30088 -1.653128,0.39946 -0.155318,0.0334 -0.367588,0.0283 -0.445452,-0.13694 -0.07919,-0.18346 0.06431,-0.37002 0.197405,-0.48525 0.261583,-0.20793 0.571598,-0.35609 0.894001,-0.44183 0.243475,-0.0659 0.545706,-0.0221 0.689364,0.20722 0.150979,-0.0814 0.30222,-0.16304 0.453202,-0.24443 -0.129016,-0.24364 -0.412856,-0.35886 -0.677995,-0.36018 z"
       style="font-style:normal;font-variant:normal;font-weight:normal;font-stretch:normal;font-size:32.8845px;line-height:1.25;font-family:Arial;-inkscape-font-specification:Arial;letter-spacing:0px;word-spacing:0px;fill:#272f95;fill-opacity:1;stroke-width:0.116296"
       id="path980" />
  </g>
</svg>
